<svg width="147" height="40" viewBox="0 0 147 40" fill="none" xmlns="http://www.w3.org/2000/svg">
<path id="Vector" opacity="0.7" d="M135.824 0.0440367L127.75 16.2642C127.75 16.2642 124.272 9.01284 123.229 7.42752C120.543 3.37615 116.154 0.587156 111.075 0.0880734C110.914 0.0587156 110.767 0.0587156 110.605 0.0440367C110.224 0.0146789 109.842 0 109.446 0C106.202 0 103.207 0.939449 100.653 2.55413V0.0880734H91.7871V9.61468C89.3945 4.41835 84.3743 0.66055 78.4294 0.0880734C77.9009 0.0293578 77.3578 0 76.8147 0C73.556 0 70.5615 0.939449 68.022 2.55413V0.0880734H59.156V18.3046C59.156 22.0477 57.233 25.556 54.0477 27.4936C51.2587 29.1817 48.1468 30.356 44.8 30.8697C43.5376 31.0752 42.2312 31.178 40.8954 31.178C40.2202 31.178 38.4881 31.0752 38.2972 31.0606C37.9156 31.0312 36.9908 30.8844 36.8881 30.8697C33.0716 30.1505 30.6789 27.8605 29.7248 24H56.5431C56.7927 22.4 56.8954 21.0642 56.8954 20.0073C56.8954 14.356 55.1927 9.61468 51.7725 5.78349C48.4697 1.95229 44.1688 0.0293578 38.8991 0.0293578C38.7229 0.0293578 38.5468 0.0293578 38.356 0.0440367C33.0716 0.161468 28.7413 2.0844 25.3798 5.78349C24.1321 7.1633 23.0899 8.64587 22.2972 10.2606C22.2239 10.3633 19.3028 16.2789 19.3028 16.2789L10.9945 0.0440367H0L14.444 25.7761V39.956H24.0881V32.6605C24.5138 33.233 24.9688 33.7615 25.4679 34.2899C27.6697 36.6385 30.3266 38.2385 33.4239 39.1339C35.3174 39.6771 37.3872 39.956 39.6183 39.956C39.7358 39.956 39.8826 39.956 40.0147 39.9413H40.3229C40.5138 39.956 40.7193 39.956 40.9101 39.956C46.4 39.956 51.5817 38.6495 56.1761 36.3596C57.2037 35.8459 58.2018 35.2587 59.1706 34.6422V39.9853H68.0367V20.2422C68.0367 18.4514 68.3009 16.6605 68.8881 14.9725C69.9009 12.1688 72.0147 8.8367 76.5064 8.85138C77.1817 8.85138 77.8422 8.92477 78.4587 9.1156C81.556 9.95229 83.8312 12.8 83.8312 16.1615C83.8312 19.5229 81.556 22.356 78.4587 23.2073V32.8807C80.7339 32.6752 82.8771 31.9853 84.8 30.9284C87.8679 29.211 90.3486 26.5541 91.8165 23.3394V40H100.683V20.2422C100.683 18.4807 100.917 16.7046 101.505 15.0459C102.488 12.2128 104.617 8.8367 109.152 8.85138C109.828 8.85138 110.488 8.92477 111.09 9.1156C112.837 9.6 114.305 10.6862 115.273 12.1835C115.303 12.2422 116.345 13.7541 116.462 16.1615C116.624 19.5229 114.187 22.356 111.09 23.2073V32.8807C113.365 32.6752 115.508 31.9853 117.431 30.9284C119.604 29.7248 121.453 28.0514 122.892 26.0257V39.9413H132.536V25.7615L146.789 0.0440367H135.824ZM32.778 10.8183C34.5982 9.3945 36.433 8.80734 38.8991 8.80734C41.0862 8.80734 42.9798 9.45321 44.5505 10.7596C46.1505 12.0807 47.2073 13.9743 47.7211 16.4257H29.578C29.6661 16.0587 30.2972 12.7413 32.778 10.8183Z" fill="white"/>
</svg>
