<svg width="16" height="16" viewBox="0 0 16 16" fill="none" xmlns="http://www.w3.org/2000/svg">
<g id="ant-design:twitter-outlined">
<path id="Vector" d="M14.5001 3.97296C14.022 4.17921 13.5017 4.32764 12.9657 4.38546C13.5221 4.05489 13.9388 3.53264 14.1376 2.91671C13.6155 3.22731 13.0435 3.44512 12.447 3.56046C12.1977 3.29393 11.8961 3.08161 11.5612 2.93672C11.2262 2.79182 10.865 2.71746 10.5001 2.71827C9.02353 2.71827 7.83603 3.91514 7.83603 5.38389C7.83603 5.59014 7.86103 5.79639 7.90166 5.99483C5.69072 5.87921 3.71885 4.82296 2.40791 3.20577C2.16904 3.61376 2.04387 4.07831 2.04541 4.55108C2.04541 5.47608 2.51572 6.29171 3.23291 6.77139C2.81026 6.75475 2.39751 6.63858 2.02822 6.43233V6.46514C2.02822 7.76046 2.94385 8.83389 4.16416 9.08077C3.93503 9.14029 3.69933 9.17073 3.4626 9.17139C3.28916 9.17139 3.1251 9.15421 2.95947 9.13077C3.29697 10.187 4.27978 10.9542 5.4501 10.9792C4.53447 11.6964 3.3876 12.1183 2.14229 12.1183C1.91885 12.1183 1.7126 12.1105 1.49854 12.0855C2.67979 12.8433 4.08135 13.2808 5.59072 13.2808C10.4907 13.2808 13.172 9.22139 13.172 5.69796C13.172 5.58233 13.172 5.46671 13.1642 5.35108C13.6829 4.97139 14.1376 4.50108 14.5001 3.97296Z" fill="#1C2126"/>
</g>
</svg>
