<svg width="16" height="16" viewBox="0 0 16 16" fill="none" xmlns="http://www.w3.org/2000/svg">
<g id="bx:bxl-linkedin">
<path id="Vector" d="M3.32195 4.79819C4.12755 4.79819 4.78061 4.14513 4.78061 3.33953C4.78061 2.53393 4.12755 1.88086 3.32195 1.88086C2.51635 1.88086 1.86328 2.53393 1.86328 3.33953C1.86328 4.14513 2.51635 4.79819 3.32195 4.79819Z" fill="#1C2126"/>
<path id="Vector_2" d="M6.15814 5.90337V13.996H8.67081V9.99404C8.67081 8.93804 8.86948 7.91537 10.1788 7.91537C11.4701 7.91537 11.4861 9.1227 11.4861 10.0607V13.9967H14.0001V9.5587C14.0001 7.3787 13.5308 5.70337 10.9828 5.70337C9.75948 5.70337 8.93948 6.3747 8.60414 7.01004H8.57014V5.90337H6.15814ZM2.06348 5.90337H4.58014V13.996H2.06348V5.90337Z" fill="#1C2126"/>
</g>
</svg>
