<svg width="16" height="16" viewBox="0 0 16 16" fill="none" xmlns="http://www.w3.org/2000/svg">
<g id="codicon:search" clip-path="url(#clip0_498_11268)">
<g id="Group">
<path id="Vector" d="M5.83398 6.8356e-07C6.89367 -0.000527531 7.93095 0.305084 8.82108 0.880081C9.7112 1.45508 10.4163 2.27498 10.8515 3.24117C11.2867 4.20737 11.4335 5.27872 11.2743 6.32638C11.1151 7.37403 10.6566 8.35339 9.95398 9.14667L15.334 15.2533L14.5873 15.92L9.22065 9.84C8.53034 10.38 7.721 10.7472 6.86005 10.911C5.99909 11.0749 5.11145 11.0306 4.27106 10.782C3.43066 10.5333 2.66184 10.0875 2.02864 9.48156C1.39544 8.87563 0.916183 8.12718 0.630795 7.29854C0.345406 6.46991 0.262145 5.58507 0.387949 4.71774C0.513753 3.85041 0.844978 3.02569 1.35404 2.31229C1.86309 1.59888 2.53525 1.01744 3.31451 0.61639C4.09377 0.21534 4.95758 0.0062954 5.83398 0.00666735V6.8356e-07ZM5.83398 10C7.02746 10 8.17205 9.5259 9.01596 8.68198C9.85988 7.83807 10.334 6.69348 10.334 5.5C10.334 4.30653 9.85988 3.16193 9.01596 2.31802C8.17205 1.47411 7.02746 1 5.83398 1C4.64051 1 3.49592 1.47411 2.652 2.31802C1.80809 3.16193 1.33398 4.30653 1.33398 5.5C1.33398 6.69348 1.80809 7.83807 2.652 8.68198C3.49592 9.5259 4.64051 10 5.83398 10Z" fill="black"/>
</g>
</g>
<defs>
<clipPath id="clip0_498_11268">
<rect width="16" height="16" fill="white" transform="matrix(-1 0 0 1 16 0)"/>
</clipPath>
</defs>
</svg>
