<svg width="50" height="51" viewBox="0 0 50 51" fill="none" xmlns="http://www.w3.org/2000/svg">
<path d="M4.33574 16.7864C2.32073 23.6653 3.33519 30.016 7.30962 35.936C6.86492 36.2417 6.43413 36.5613 5.97554 36.8809C4.57198 34.9215 3.52974 32.837 2.80712 30.5997C1.29238 25.9026 1.26459 21.1778 2.72374 16.4668C2.83491 16.1194 2.80712 15.9387 2.4597 15.7859C1.83435 15.4941 1.2368 15.1466 0.611451 14.827C0.264036 14.6464 0 14.424 0 13.9932C0 13.5763 0.264036 13.3401 0.597554 13.1594C2.12618 12.3395 3.65481 11.5196 5.16954 10.6719C5.39188 10.5469 5.60033 10.3662 5.7393 10.1716C9.86659 4.33507 15.4808 0.972094 22.5681 0.152194C32.2262 -0.959535 41.7176 4.33507 45.9839 13.1455C46.0673 13.3262 46.1645 13.5207 46.2896 13.7431C47.1373 13.5346 47.9711 13.3262 48.791 13.1038C49.1662 13.0066 49.5136 13.0066 49.7915 13.3123C50.0695 13.618 50.0417 13.9654 49.9027 14.3406C49.3191 15.9943 48.7354 17.648 48.1795 19.3017C48.0962 19.538 48.0684 19.8159 48.1101 20.0521C48.9439 26.1805 47.5542 31.767 44.0384 36.9087C43.5798 36.5891 43.149 36.2834 42.6904 35.9499C42.8016 35.7692 42.8988 35.6163 42.9961 35.4635C46.0395 30.8498 47.2068 25.8192 46.4564 20.344C46.4286 20.1077 46.2757 19.8576 46.109 19.6908C44.8999 18.5791 43.6631 17.4813 42.4263 16.3834C42.1206 16.1055 41.8288 15.8276 41.9261 15.369C42.0372 14.8826 42.4263 14.7575 42.8571 14.6464C43.4408 14.5074 44.0245 14.3406 44.6359 14.1739C43.4547 11.6447 41.8844 9.44903 39.8833 7.58688C35.478 3.50128 30.239 1.45847 24.2357 1.70861C17.0928 2.01434 11.423 5.18277 7.24013 10.9915C7.10117 11.1861 7.01779 11.5057 7.04558 11.7559C7.19844 13.4512 7.3791 15.1466 7.55976 16.8281C7.60145 17.2172 7.55976 17.6202 7.18455 17.7592C6.90662 17.8704 6.50361 17.8426 6.22568 17.7175C5.58644 17.4813 5.01668 17.1339 4.33574 16.7864ZM47.8738 15.0633C46.6926 15.369 45.6087 15.6469 44.4414 15.9526C45.2891 16.7031 46.0395 17.3701 46.8316 18.0788C47.1929 17.0505 47.5125 16.1055 47.8738 15.0633ZM5.7393 15.633C5.62813 14.5352 5.51695 13.5346 5.40578 12.4507C4.44692 12.9649 3.57143 13.4512 2.59867 13.9654C3.6826 14.5352 4.65536 15.0494 5.7393 15.633Z" fill="#1C2126"/>
<path d="M16.4122 27.237C15.634 27.112 15.0503 26.7923 14.6612 26.1809C14.022 25.1525 13.3828 24.1103 12.7713 23.068C12.1876 22.0675 12.5073 20.9697 13.5078 20.3721C13.6885 20.2609 13.9108 20.2053 14.0498 20.0664C14.1888 19.9274 14.2999 19.719 14.3138 19.5244C14.3416 18.7462 14.3416 17.968 14.3138 17.1898C14.3138 17.0091 14.1888 16.7868 14.0498 16.6478C13.883 16.4811 13.6329 16.4116 13.4244 16.2726C12.5351 15.7167 12.2154 14.6328 12.7296 13.7295C13.355 12.6317 14.0081 11.5478 14.689 10.4777C15.2866 9.56055 16.4261 9.26872 17.3989 9.85237C18.0242 10.2276 18.4967 10.2415 19.0665 9.769C19.4556 9.44937 19.9559 9.19923 20.4283 9.03247C20.9703 8.83792 21.151 8.5183 21.1371 7.94854C21.1093 6.64226 21.9292 5.85015 23.2354 5.83625C23.2493 5.83625 23.2632 5.83625 23.291 5.83625C24.4722 5.83625 25.6535 5.82236 26.8347 5.83625C28.0437 5.85015 28.8914 6.65615 28.8636 7.86516C28.8497 8.5044 29.0581 8.82402 29.6418 9.06027C30.2393 9.31041 30.7952 9.68561 31.3511 10.033C31.6429 10.2137 31.8652 10.2276 32.171 10.0747C32.5045 9.89406 32.8519 9.69951 33.2132 9.60224C34.0887 9.39379 34.8947 9.76899 35.395 10.575C36.0203 11.5756 36.6318 12.59 37.2154 13.6045C37.7991 14.605 37.5073 15.6889 36.5206 16.3004C36.4233 16.3699 36.3122 16.4394 36.201 16.4811C35.7563 16.6478 35.6451 16.9118 35.7007 17.3982C35.7841 18.0514 35.7563 18.7184 35.6868 19.3715C35.6451 19.7746 35.7424 19.9969 36.1037 20.1359C36.2844 20.2053 36.4372 20.3165 36.604 20.4138C37.4795 20.9836 37.7852 22.0536 37.2571 22.9708C36.6457 24.0547 35.9925 25.1247 35.3255 26.1809C34.714 27.1259 33.5745 27.4177 32.5879 26.8201C31.9764 26.4588 31.5317 26.4588 30.962 26.8896C30.4756 27.2648 29.878 27.515 29.3222 27.779C29.0025 27.918 28.8636 28.0986 28.8775 28.446C28.8914 28.7518 28.8914 29.0714 28.8219 29.3771C28.6134 30.2526 27.8352 30.8363 26.9042 30.8363C25.6535 30.8501 24.4028 30.8501 23.1521 30.8363C21.9848 30.8224 21.1232 30.0025 21.1649 28.8351C21.1926 28.1681 20.9842 27.8346 20.3589 27.5983C19.7752 27.376 19.2332 27.0008 18.6913 26.6534C18.3855 26.4588 18.1493 26.4449 17.8297 26.6117C17.3711 26.8618 16.8847 27.0286 16.4122 27.237ZM24.9725 29.1965C25.4589 29.1965 25.9453 29.1965 26.4317 29.1965C27.2099 29.1965 27.2238 29.1965 27.2099 28.4321C27.196 27.4038 27.6546 26.6951 28.6134 26.2782C29.1415 26.0558 29.6696 25.8196 30.1143 25.4722C31.1426 24.6801 32.1571 24.5967 33.2271 25.3193C33.5606 25.5416 33.8247 25.4861 34.0331 25.1109C34.5612 24.1937 35.1171 23.2904 35.6729 22.3871C35.8675 22.0814 35.8397 21.8868 35.5062 21.734C35.2977 21.6367 35.1032 21.5255 34.9225 21.4005C34.2277 20.9558 33.9497 20.3165 33.9914 19.4966C34.0192 18.7184 34.0192 17.9402 33.9914 17.162C33.9636 16.3838 34.2277 15.7723 34.8669 15.3276C35.0754 15.1748 35.3116 15.0497 35.5478 14.9385C35.8536 14.7857 35.8814 14.5911 35.7007 14.3132C35.2004 13.5211 34.7279 12.7151 34.2416 11.9091C33.7552 11.1031 33.7552 11.0892 32.9353 11.5478C32.0598 12.0341 31.226 11.9786 30.3922 11.4088C29.8919 11.0614 29.3639 10.7418 28.808 10.5194C27.6685 10.0747 27.1126 9.29651 27.196 8.08751C27.2238 7.61502 27.0153 7.48995 26.5845 7.50385C25.584 7.53164 24.5695 7.50385 23.569 7.51774C22.7908 7.51774 22.7769 7.51774 22.7908 8.28206C22.7908 9.31041 22.3322 10.0052 21.3872 10.436C20.7063 10.7418 20.067 11.1309 19.4417 11.52C18.7052 11.9647 17.9825 12.0202 17.2182 11.6311C17.0376 11.5339 16.8569 11.4366 16.6762 11.3393C16.3983 11.1864 16.1899 11.2281 16.0231 11.5061C15.4395 12.4788 14.8419 13.4238 14.286 14.4105C14.2166 14.5216 14.3138 14.7857 14.4111 14.8968C14.5223 15.0358 14.7307 15.0914 14.8975 15.1887C15.773 15.7028 16.0787 16.3421 15.9953 17.3565C15.9397 18.0514 15.9536 18.7462 16.0092 19.4271C16.0648 20.2887 15.7869 20.9558 15.0503 21.4144C14.967 21.4699 14.8697 21.5255 14.7863 21.5672C14.0776 21.9702 14.0776 21.9702 14.5084 22.6789C14.9253 23.3738 15.3561 24.0686 15.773 24.7773C16.2594 25.5833 16.2732 25.5972 17.0793 25.1386C17.9408 24.6523 18.7468 24.7217 19.5806 25.2498C20.2199 25.6528 20.9008 26.0141 21.5818 26.3477C22.3461 26.7229 22.7352 27.3065 22.8047 28.1403C22.8186 28.2793 22.8186 28.4182 22.8047 28.5572C22.7491 29.0297 22.9297 29.2242 23.4161 29.1965C23.9303 29.1687 24.4445 29.1965 24.9725 29.1965Z" fill="#1C2126"/>
<path d="M20.2324 37.3389C20.6771 36.8942 21.0523 36.519 21.4414 36.116C22.0112 36.6858 22.5671 37.2278 23.0951 37.7836C23.2202 37.9226 23.3175 38.1588 23.3175 38.3395C23.3314 42.2027 23.3314 46.066 23.3314 49.9709C22.7894 49.9709 22.2613 49.9709 21.6638 49.9709C21.6638 49.7903 21.6638 49.6096 21.6638 49.4151C21.6638 46.0521 21.6499 42.6891 21.6777 39.3261C21.6777 38.8537 21.5665 38.5062 21.1913 38.2005C20.8578 37.9504 20.552 37.6447 20.2324 37.3389Z" fill="#1C2126"/>
<path d="M28.3338 50.0138C27.7502 50.0138 27.236 50.0138 26.694 50.0138C26.6801 49.8471 26.6662 49.6942 26.6662 49.5414C26.6662 45.9143 26.6662 42.2873 26.6523 38.6603C26.6523 38.2156 26.7774 37.8682 27.1109 37.5486C27.5973 37.0761 28.042 36.5758 28.5284 36.0616C28.9453 36.5063 29.2927 36.8815 29.6957 37.3123C29.4873 37.5208 29.2788 37.7987 29.0148 37.9933C28.4728 38.4241 28.2921 38.9382 28.306 39.647C28.3477 42.8849 28.3199 46.1367 28.3199 49.3746C28.3338 49.583 28.3338 49.7776 28.3338 50.0138Z" fill="#1C2126"/>
<path d="M19.997 34.227C19.997 35.575 18.8575 36.7006 17.4957 36.7006C16.106 36.7006 14.9804 35.5611 14.9943 34.1714C15.0082 32.8095 16.1338 31.6978 17.4957 31.6978C18.8853 31.6978 20.0109 32.8234 19.997 34.227ZM17.5096 33.3654C17.0649 33.3654 16.6758 33.7267 16.6758 34.1714C16.6619 34.6439 17.051 35.033 17.5235 35.0191C17.9681 35.0052 18.3434 34.63 18.3434 34.1853C18.3295 33.7406 17.9542 33.3654 17.5096 33.3654Z" fill="#1C2126"/>
<path d="M32.5052 31.6978C33.8949 31.6978 35.0066 32.8234 35.0066 34.2131C35.0066 35.5611 33.8671 36.6867 32.5191 36.6867C31.1294 36.6867 30.0038 35.5472 30.0177 34.1714C30.0177 32.8095 31.1433 31.6978 32.5052 31.6978ZM32.5052 35.0191C32.9499 35.0191 33.3251 34.6578 33.339 34.2131C33.3529 33.7684 32.9916 33.3793 32.5469 33.3654C32.0744 33.3515 31.6853 33.7267 31.6853 34.1992C31.6853 34.6439 32.0466 35.0191 32.5052 35.0191Z" fill="#1C2126"/>
<path d="M14.161 40.0348C14.161 41.3967 13.0354 42.5084 11.6735 42.5223C10.2977 42.5223 9.1582 41.3967 9.1582 40.007C9.1582 38.6452 10.2838 37.5195 11.6457 37.5195C13.0354 37.5334 14.1749 38.6591 14.161 40.0348ZM12.4934 40.007C12.4795 39.5623 12.1043 39.1871 11.6596 39.201C11.1871 39.201 10.8119 39.604 10.8397 40.0765C10.8675 40.5212 11.2566 40.8825 11.7013 40.8686C12.146 40.8408 12.5073 40.4517 12.4934 40.007Z" fill="#1C2126"/>
<path d="M40.8418 40.0916C40.814 41.4673 39.6328 42.5651 38.2432 42.5235C36.8952 42.4818 35.7974 41.3145 35.839 39.9526C35.8807 38.5768 37.048 37.479 38.4238 37.5207C39.7857 37.5763 40.8696 38.7297 40.8418 40.0916ZM39.1742 40.036C39.1742 39.5913 38.8129 39.2161 38.3682 39.2022C37.8957 39.1883 37.5066 39.5774 37.5205 40.0499C37.5344 40.4946 37.9096 40.8698 38.3543 40.8559C38.799 40.8559 39.1742 40.4807 39.1742 40.036Z" fill="#1C2126"/>
<path d="M17.4416 50.0136C16.9135 50.0136 16.4132 50.0136 15.8435 50.0136C15.8435 49.819 15.8435 49.6383 15.8435 49.4577C15.8435 47.9846 15.8296 46.5116 15.8574 45.0386C15.8574 44.6773 15.774 44.4132 15.496 44.177C15.1208 43.8713 14.7873 43.5238 14.4121 43.1764C14.8707 42.7595 15.2598 42.4121 15.6489 42.0647C16.1631 42.565 16.7606 43.1069 17.3304 43.6906C17.4416 43.8157 17.5111 44.038 17.5111 44.2187C17.525 46.0947 17.525 47.9569 17.5111 49.8329C17.4972 49.9024 17.4555 49.958 17.4416 50.0136Z" fill="#1C2126"/>
<path d="M34.3524 41.9393C34.811 42.384 35.1723 42.7453 35.6448 43.19C35.2557 43.5374 34.8805 43.8848 34.5052 44.2044C34.2412 44.4268 34.1578 44.6769 34.1578 45.0104C34.1717 46.6502 34.1717 48.3039 34.1717 49.9854C33.6298 49.9854 33.1017 49.9854 32.5319 49.9854C32.518 49.8464 32.5041 49.7075 32.5041 49.5546C32.5041 47.8592 32.518 46.1638 32.4902 44.4546C32.4902 44.0238 32.6292 43.6902 32.9349 43.3984C33.4213 42.9398 33.8799 42.4395 34.3524 41.9393Z" fill="#1C2126"/>
<path d="M25.0144 24.1801C21.7765 24.1801 19.1639 21.5536 19.1778 18.3157C19.1778 15.1334 21.8042 12.5209 24.9727 12.507C28.2384 12.507 30.8509 15.1334 30.837 18.3991C30.8231 21.5814 28.1828 24.194 25.0144 24.1801ZM25.0144 14.1884C22.7075 14.1884 20.8315 16.0506 20.8315 18.3574C20.8315 20.6365 22.6797 22.5125 24.9588 22.5264C27.2934 22.5403 29.1695 20.6643 29.1695 18.3296C29.1695 16.0506 27.2934 14.1884 25.0144 14.1884Z" fill="#1C2126"/>
</svg>
