<svg width="50" height="50" viewBox="0 0 50 50" fill="none" xmlns="http://www.w3.org/2000/svg">
<g clip-path="url(#clip0_798_9560)">
<path d="M49.9991 35.6292C49.9991 36.406 49.9991 37.1828 49.9991 37.9596C49.9732 38.0632 49.9344 38.1797 49.9214 38.2833C49.3 43.6044 45.6231 47.8767 40.4704 49.262C39.7453 49.4562 38.9944 49.5598 38.2565 49.7022C25.6076 49.7022 12.9458 49.7022 0.296875 49.7022C0.296875 47.7861 0.296875 45.883 0.296875 43.9798C0.646435 43.3584 1.29377 43.5267 1.82458 43.4749C1.82458 42.4133 1.82458 41.4164 1.82458 40.3936C1.25493 40.3936 0.659381 40.4842 0.296875 39.9016C0.296875 38.1538 0.296875 36.406 0.296875 34.6582C0.568755 34.2569 0.944208 34.1403 1.42323 34.1662C2.07057 34.1921 2.73085 34.1792 3.40407 34.1792C3.40407 32.9492 3.40407 31.8099 3.40407 30.6577C3.40407 29.7255 3.61122 29.5184 4.54338 29.5184C5.70858 29.5184 6.86083 29.5184 8.06487 29.5184C8.06487 28.3014 8.06487 27.1491 8.06487 25.9839C8.06487 25.0777 8.28496 24.8576 9.16534 24.8576C10.8096 24.8576 12.4667 24.8446 14.111 24.8705C14.6288 24.8835 15.0302 24.7799 15.4056 24.4045C15.807 24.0031 16.2731 23.6794 16.7391 23.3558C19.1213 21.6857 21.5035 20.0155 23.8857 18.3454C24.0281 18.2418 24.1705 18.1383 24.3129 18.0217C23.3808 16.9342 23.3419 15.8467 24.1705 14.7462C23.7174 14.1766 23.5102 13.5681 23.6138 12.869C23.7174 12.1569 24.1187 11.6261 24.7013 11.2118C24.6107 11.0953 24.5589 11.0176 24.5071 10.9399C22.8629 8.76489 20.8432 6.9912 18.6423 5.39876C18.0338 4.95857 17.995 4.47954 18.5517 3.96168C19.4191 3.15898 20.4419 2.66701 21.5812 2.43397C22.1508 2.31745 22.7464 2.25272 23.3678 2.16209C23.2254 1.92905 23.1089 1.7478 22.9924 1.5536C22.6428 0.958053 22.8241 0.46608 23.4843 0.284827C23.8727 0.181253 24.2611 0.0906266 24.6495 0C25.1027 0 25.5558 0 26.0089 0C26.9799 0.207147 27.7826 0.725013 28.5853 1.25583C29.3751 1.77369 30.2037 1.77369 30.9934 1.25583C31.7961 0.725013 32.6117 0.207147 33.5698 0C34.0229 0 34.4761 0 34.9292 0C35.3176 0.0906266 35.7189 0.168307 36.0944 0.284827C36.7547 0.46608 36.9359 0.958053 36.5864 1.5536C36.4698 1.76075 36.3533 1.95495 36.2239 2.16209C36.2886 2.20093 36.3015 2.20093 36.3145 2.21388C36.444 2.22683 36.5734 2.22683 36.7029 2.23977C38.2565 2.36924 39.6806 2.80943 40.8847 3.83221C41.6226 4.4666 41.5708 4.88089 40.8329 5.50233C39.3311 6.75816 37.8551 8.03988 36.4181 9.36044C35.8355 9.89125 35.3823 10.5774 34.8645 11.1859C36.1721 12.377 36.2756 13.1926 35.4212 14.798C36.2109 15.9891 36.185 16.7141 35.2788 18.0476C35.4082 18.1383 35.5247 18.2418 35.6671 18.3325C38.127 20.0544 40.6128 21.7633 43.0597 23.5111C46.2705 25.8027 48.4067 28.871 49.4036 32.6903C49.6884 33.6484 49.8049 34.6453 49.9991 35.6292ZM34.4761 48.0709C35.8225 48.0709 37.1301 48.1616 38.4118 48.058C43.8106 47.579 48.2772 42.8534 48.4196 37.4288C48.5491 32.289 46.5553 28.0943 42.4512 25C39.6029 22.8509 36.6123 20.87 33.6863 18.8244C33.531 18.7079 33.2979 18.6561 33.1037 18.6561C30.9028 18.6432 28.7018 18.6432 26.5009 18.6561C26.2938 18.6561 26.0478 18.7338 25.8795 18.8503C23.1477 20.7535 20.416 22.6696 17.6842 24.5728C17.5936 24.6375 17.5159 24.7281 17.3606 24.8576C19.1602 24.8576 20.8562 24.8576 22.5522 24.8576C23.3031 24.8576 23.562 25.1165 23.562 25.8804C23.562 26.709 23.562 27.5246 23.562 28.3532C23.562 28.7286 23.562 29.117 23.562 29.5054C23.821 29.5054 23.9893 29.5054 24.1705 29.5054C27.5237 29.5054 30.8639 29.5054 34.2171 29.5054C34.9421 29.5054 35.214 29.7644 35.214 30.5023C35.214 31.8617 35.2011 33.2211 35.227 34.5805C35.2399 35.189 35.0975 35.6292 34.4631 35.7587C34.4631 36.8074 34.4631 37.8042 34.4631 38.84C34.722 38.84 34.968 38.827 35.2011 38.84C35.6671 38.8659 35.9779 39.1507 35.9779 39.6038C35.9908 41.1574 35.9908 42.711 35.9779 44.2646C35.9779 44.7437 35.6672 45.0285 35.1622 45.0414C34.9292 45.0544 34.6962 45.0414 34.4502 45.0414C34.4761 46.116 34.4761 47.1129 34.4761 48.0709ZM29.0255 10.8752C29.0255 10.6422 29.0255 10.4738 29.0255 10.2926C29.0255 8.72605 29.0255 7.1595 29.0255 5.58001C29.0255 5.0492 29.2715 4.72553 29.6987 4.6608C30.2037 4.59606 30.5662 4.97152 30.5662 5.56706C30.5662 7.14656 30.5662 8.73899 30.5662 10.3185C30.5662 10.4868 30.5662 10.6551 30.5662 10.8493C31.3948 10.8493 32.1586 10.8622 32.9095 10.8364C33.0908 10.8234 33.3238 10.6939 33.4403 10.5515C34.5667 9.2957 35.6283 8.00104 36.7806 6.78405C37.5444 5.98136 38.4507 5.32108 39.3181 4.57017C38.127 3.83221 36.8324 3.67685 35.4859 3.76748C35.3823 3.78042 35.227 3.94873 35.1881 4.0782C34.6832 5.34697 34.1783 6.62869 33.6993 7.91041C33.4662 8.53185 33.1296 8.79078 32.6506 8.62247C32.1974 8.46712 32.0421 8.06577 32.2104 7.45728C32.7671 5.56706 33.5309 3.75453 34.489 2.01968C34.5667 1.87727 34.6314 1.7478 34.7091 1.56655C34.0359 1.46297 33.4403 1.56655 32.8836 1.86432C32.5988 2.01968 32.3269 2.20093 32.068 2.38219C30.5403 3.41792 29.0255 3.41792 27.4978 2.38219C27.2259 2.20093 26.967 2.01968 26.6822 1.86432C26.1255 1.5536 25.5299 1.43708 24.8567 1.57949C25.1674 2.20093 25.504 2.75764 25.75 3.34024C26.3197 4.73848 26.8634 6.16261 27.3813 7.58674C27.5496 8.05282 27.3424 8.46712 26.9282 8.60953C26.488 8.76489 26.0866 8.5448 25.9183 8.03988C25.8795 7.92336 25.8536 7.79389 25.8018 7.66442C25.3357 6.46038 24.8696 5.25634 24.3777 4.06525C24.3259 3.93578 24.1835 3.75453 24.0799 3.75453C22.7334 3.67685 21.4388 3.83221 20.2218 4.57017C20.3512 4.67374 20.4289 4.76437 20.5325 4.84205C22.6687 6.51217 24.6366 8.36354 26.1772 10.6163C26.2549 10.7198 26.4232 10.8234 26.5656 10.8234C27.3683 10.8881 28.1581 10.8752 29.0255 10.8752ZM11.185 48.1227C15.3409 48.1227 19.445 48.1227 23.5491 48.1227C23.5491 47.0741 23.5491 46.0772 23.5491 45.0803C19.4061 45.0803 15.3021 45.0803 11.185 45.0803C11.185 46.0901 11.185 47.087 11.185 48.1227ZM11.185 43.4619C15.3409 43.4619 19.445 43.4619 23.5491 43.4619C23.5491 42.4262 23.5491 41.4164 23.5491 40.4195C19.4061 40.4195 15.3021 40.4195 11.185 40.4195C11.185 41.4293 11.185 42.4262 11.185 43.4619ZM9.63142 38.8011C13.7743 38.8011 17.8914 38.8011 21.9955 38.8011C21.9955 37.7654 21.9955 36.7556 21.9955 35.7457C17.8525 35.7457 13.7485 35.7457 9.63142 35.7457C9.63142 36.7685 9.63142 37.7654 9.63142 38.8011ZM11.198 31.0849C11.198 32.1336 11.198 33.1434 11.198 34.1274C15.3409 34.1274 19.4579 34.1274 23.562 34.1274C23.562 33.0917 23.562 32.0948 23.562 31.0849C19.432 31.0849 15.3279 31.0849 11.198 31.0849ZM9.63142 29.4795C13.7873 29.4795 17.8914 29.4795 21.9955 29.4795C21.9955 28.4438 21.9955 27.434 21.9955 26.4371C17.8525 26.4371 13.7485 26.4371 9.63142 26.4371C9.63142 27.4599 9.63142 28.4568 9.63142 29.4795ZM29.7635 17.0896C30.9934 17.0896 32.2233 17.0896 33.4533 17.0896C34.1006 17.0896 34.4631 16.7918 34.4631 16.2998C34.4502 15.8079 34.1006 15.536 33.4403 15.536C33.2979 15.536 33.1555 15.536 33.0001 15.536C32.4693 15.523 32.1327 15.2123 32.1457 14.7462C32.1586 14.2931 32.4952 13.9953 33.026 13.9824C33.1814 13.9824 33.3497 13.9824 33.5051 13.9824C34.1006 13.9694 34.4631 13.6717 34.4631 13.1926C34.4502 12.7266 34.1006 12.4288 33.531 12.4288C31.0452 12.4288 28.5465 12.4288 26.0607 12.4288C25.504 12.4288 25.1415 12.7525 25.1545 13.2185C25.1674 13.6846 25.504 13.9824 26.0866 13.9824C26.9929 13.9824 27.8992 13.9824 28.8054 13.9824C29.4528 13.9824 29.8153 14.2672 29.8153 14.7721C29.8023 15.2641 29.4528 15.536 28.7925 15.536C27.938 15.536 27.0835 15.536 26.2161 15.536C25.5299 15.536 25.1545 15.8208 25.1674 16.3257C25.1804 16.8307 25.5429 17.0896 26.242 17.0896C27.3942 17.0896 28.5853 17.0896 29.7635 17.0896ZM34.4372 40.4195C31.3171 40.4195 28.2487 40.4195 25.1804 40.4195C25.1804 41.4552 25.1804 42.465 25.1804 43.4619C28.2876 43.4619 31.3559 43.4619 34.4372 43.4619C34.4372 42.4521 34.4372 41.4552 34.4372 40.4195ZM23.6138 38.8011C26.734 38.8011 29.8023 38.8011 32.8707 38.8011C32.8707 37.7654 32.8707 36.7556 32.8707 35.7587C29.7635 35.7587 26.6951 35.7587 23.6138 35.7587C23.6138 36.7685 23.6138 37.7654 23.6138 38.8011ZM25.1545 34.1403C28.0157 34.1403 30.838 34.1403 33.6345 34.1403C33.6345 33.0917 33.6345 32.0948 33.6345 31.0979C30.7863 31.0979 27.9768 31.0979 25.1545 31.0979C25.1545 32.1207 25.1545 33.1176 25.1545 34.1403ZM25.1545 48.1227C27.7567 48.1227 30.3202 48.1227 32.8577 48.1227C32.8577 47.0741 32.8577 46.0772 32.8577 45.0803C30.2684 45.0803 27.7179 45.0803 25.1545 45.0803C25.1545 46.1031 25.1545 47.087 25.1545 48.1227ZM1.86342 48.1227C4.4657 48.1227 7.02914 48.1227 9.56668 48.1227C9.56668 47.0741 9.56668 46.0772 9.56668 45.0803C6.97735 45.0803 4.42686 45.0803 1.86342 45.0803C1.86342 46.1031 1.86342 47.087 1.86342 48.1227ZM8.01308 38.8141C8.01308 37.7784 8.01308 36.7685 8.01308 35.7716C5.94162 35.7716 3.89605 35.7716 1.85047 35.7716C1.85047 36.8074 1.85047 37.8042 1.85047 38.8141C3.90899 38.8141 5.94162 38.8141 8.01308 38.8141ZM9.57963 40.4195C7.49522 40.4195 5.46259 40.4195 3.42997 40.4195C3.42997 41.4552 3.42997 42.465 3.42997 43.4619C5.50143 43.4619 7.53406 43.4619 9.57963 43.4619C9.57963 42.4521 9.57963 41.4552 9.57963 40.4195ZM4.98357 31.0849C4.98357 32.1336 4.98357 33.1434 4.98357 34.1274C6.55011 34.1274 8.06487 34.1274 9.57963 34.1274C9.57963 33.0917 9.57963 32.0948 9.57963 31.0849C8.03898 31.0849 6.52422 31.0849 4.98357 31.0849Z" fill="#1C2126"/>
<path d="M15.8085 20.1968C15.3554 20.1838 15.0706 19.8602 15.0447 19.3164C14.967 17.8664 14.3197 16.7271 13.038 16.0538C12.5071 15.782 11.8857 15.6654 11.2902 15.5619C10.7205 15.4712 10.3839 15.2123 10.3968 14.7462C10.4098 14.2931 10.7335 14.0212 11.2902 13.9953C13.4134 13.8659 14.9282 12.3511 15.0576 10.2278C15.0965 9.67113 15.3684 9.34747 15.8215 9.34747C16.2876 9.33452 16.5853 9.67113 16.6112 10.2537C16.7278 12.3381 18.2684 13.8917 20.3399 14.0083C20.9354 14.0471 21.2591 14.319 21.2591 14.7851C21.2591 15.2511 20.9354 15.536 20.3399 15.5619C18.2684 15.6784 16.7148 17.219 16.5983 19.3034C16.5724 19.8602 16.2746 20.1968 15.8085 20.1968ZM14.4233 14.7462C14.8375 15.1605 15.4201 15.7561 15.8085 16.1445C16.2228 15.7302 16.8054 15.1476 17.2068 14.7592C16.8054 14.3449 16.2228 13.7623 15.8215 13.3609C15.4201 13.7623 14.8375 14.3319 14.4233 14.7462Z" fill="#1C2126"/>
<path d="M46.9314 36.7815C46.9055 41.261 43.9537 45.1321 39.6554 46.2714C39.5518 46.2973 39.4353 46.3232 39.3317 46.349C38.8915 46.4397 38.4902 46.2196 38.3736 45.8182C38.2571 45.4298 38.4902 45.0155 38.9174 44.8731C39.3964 44.7048 39.8755 44.5883 40.3415 44.407C43.6947 43.0088 45.7273 39.5003 45.3001 35.8881C45.2613 35.6033 45.2224 35.3055 45.2095 35.0207C45.1836 34.5935 45.4684 34.2569 45.8698 34.1921C46.2711 34.1403 46.6466 34.3863 46.7113 34.8136C46.8019 35.4609 46.8537 36.1212 46.9314 36.7815Z" fill="#1C2126"/>
<path d="M43.7087 28.6245C43.9676 28.8187 44.2395 28.9222 44.356 29.1164C44.8868 29.9968 45.3917 30.9031 45.8578 31.8093C46.0779 32.2495 45.8837 32.6897 45.4694 32.858C45.0681 33.0263 44.6797 32.858 44.4337 32.4049C43.9935 31.6022 43.5145 30.8124 43.1131 29.9968C42.9966 29.7508 42.9707 29.3883 43.0613 29.1423C43.152 28.9352 43.4627 28.8187 43.7087 28.6245Z" fill="#1C2126"/>
<path d="M4.02662 25.013C3.69001 25.013 3.48286 24.767 3.45697 24.3527C3.39224 23.2781 2.91321 22.4366 1.9681 21.9187C1.5797 21.7116 1.11363 21.6339 0.673439 21.5562C0.259146 21.4785 0.000212619 21.2973 0.0131593 20.9477C0.0261059 20.6111 0.259146 20.4039 0.673439 20.391C2.25293 20.3004 3.37929 19.174 3.46992 17.5945C3.49581 17.1802 3.70296 16.9472 4.03957 16.9342C4.38913 16.9213 4.60922 17.1802 4.63512 17.6075C4.72574 19.1481 5.86505 20.3004 7.4057 20.391C7.84589 20.4169 8.09188 20.624 8.09188 20.9736C8.09188 21.3232 7.84589 21.5303 7.4057 21.5562C5.86505 21.6468 4.7128 22.7861 4.63512 24.3397C4.59628 24.767 4.37618 25.013 4.02662 25.013ZM3.00384 20.9607C3.31456 21.2714 3.7418 21.7116 4.03957 22.0093C4.35029 21.6986 4.79048 21.2714 5.0753 20.9736C4.77753 20.6629 4.35029 20.2356 4.05252 19.9249C3.7418 20.2356 3.31456 20.6629 3.00384 20.9607Z" fill="#1C2126"/>
<path d="M6.7441 13.283C6.52401 13.283 6.39454 13.1276 6.3816 12.8687C6.34276 12.1825 6.04498 11.6517 5.43649 11.328C5.1905 11.1985 4.89273 11.1468 4.6079 11.095C4.33602 11.0432 4.18066 10.9267 4.18066 10.7066C4.18066 10.4865 4.33602 10.37 4.6079 10.3441C5.6048 10.2793 6.32981 9.56726 6.3816 8.55742C6.39454 8.29849 6.52401 8.14313 6.7441 8.14313C6.9642 8.14313 7.10661 8.29849 7.11956 8.57037C7.17134 9.55431 7.9093 10.2923 8.8803 10.3441C9.16513 10.357 9.32049 10.4865 9.32049 10.7066C9.32049 10.9267 9.16513 11.0561 8.89325 11.082C7.9093 11.1338 7.18429 11.8718 7.1325 12.8557C7.10661 13.1276 6.9642 13.2959 6.7441 13.283ZM6.09677 10.7195C6.29097 10.9137 6.56285 11.1985 6.75705 11.3798C6.95125 11.1856 7.23608 10.9137 7.41733 10.7195C7.22313 10.5253 6.95125 10.2405 6.77 10.0592C6.56285 10.2534 6.29097 10.5253 6.09677 10.7195Z" fill="#1C2126"/>
</g>
<defs>
<clipPath id="clip0_798_9560">
<rect width="50" height="49.7152" fill="white"/>
</clipPath>
</defs>
</svg>
