<svg width="50" height="51" viewBox="0 0 50 51" fill="none" xmlns="http://www.w3.org/2000/svg">
<path d="M24.6974 41.0638C24.1456 40.3505 23.3784 40.2966 22.6112 40.162C22.5978 39.9467 22.5709 39.7314 22.5574 39.4756C21.5615 39.4756 20.5655 39.4756 19.583 39.4756C18.3851 39.4756 17.7526 38.8431 17.7391 37.6452C17.7391 37.0934 17.9141 36.4205 17.6718 36.0167C17.4296 35.6129 16.7431 35.4649 16.2721 35.1957C11.1981 32.2751 8.49281 27.8875 8.07558 22.0598C8.06212 21.9386 8.1025 21.804 8.04867 21.7098C7.90062 21.4541 7.76603 21.1042 7.52377 20.9965C7.32188 20.9023 6.91811 21.01 6.72969 21.1715C6.32592 21.4945 6.00291 21.9117 5.67989 22.2616C4.11865 20.7004 2.61125 19.193 1.02309 17.6048C1.34611 17.3222 1.72296 16.9857 2.08635 16.6493C2.35553 16.407 2.49012 16.1109 2.34207 15.7475C2.18056 15.3707 1.88447 15.2495 1.49416 15.2495C1.00963 15.263 0.525112 15.2495 0.0136719 15.2495C0.0136719 13.0961 0.0136719 10.983 0.0136719 8.78924C0.484735 8.78924 0.955798 8.77578 1.44032 8.78924C1.84409 8.80269 2.1671 8.70848 2.34207 8.29125C2.50358 7.90094 2.32861 7.61831 2.05943 7.34913C1.72296 7.02611 1.38648 6.68964 1.09039 6.39354C2.62471 4.87268 4.13211 3.36528 5.73373 1.77712C5.98945 2.05976 6.32592 2.43661 6.66239 2.8C6.90465 3.06918 7.18729 3.21723 7.56414 3.06918C7.94099 2.92113 8.08904 2.62504 8.07558 2.23473C8.06212 1.7502 8.07558 1.26568 8.07558 0.740784C10.229 0.740784 12.3555 0.740784 14.5359 0.740784C14.5359 1.25222 14.5359 1.75021 14.5359 2.24819C14.5359 2.62504 14.657 2.90767 15.0204 3.05572C15.3838 3.21723 15.6799 3.0961 15.9222 2.82692C16.2721 2.46353 16.622 2.10014 17.0123 1.68291C18.116 2.8 19.1927 3.83634 20.2021 4.93998C20.7674 5.55909 21.3057 5.77443 22.194 5.69368C24.7916 5.43796 27.4026 5.3572 29.9598 6.01669C34.4282 7.1607 37.766 9.7852 40.0406 13.796C40.1213 13.944 40.2021 14.0786 40.3771 14.2267C40.3771 13.8767 40.3771 13.5133 40.3771 13.1634C40.3771 12.8135 40.3771 12.4635 40.3771 12.0732C40.902 12.0732 41.4134 12.0732 41.9921 12.0732C41.9921 12.2482 41.9921 12.4232 41.9921 12.5981C41.9921 15.0476 41.9787 17.5106 41.9921 19.9602C42.0056 21.9655 41.9114 23.9575 41.3057 25.9359C42.3286 26.2724 43.0689 25.7341 43.7687 25.2226C45.2357 26.7031 46.6893 28.1567 48.1698 29.6506C47.5507 30.4178 47.0527 31.3195 47.5238 32.4366C47.9948 33.5268 48.937 33.8363 50.0271 33.9306C50.0271 36.0032 50.0271 38.049 50.0271 40.162C48.9773 40.2832 47.9948 40.5524 47.5238 41.6694C47.0527 42.7865 47.5103 43.6883 48.1967 44.4958C46.7162 45.9763 45.2627 47.4164 43.7687 48.9104C42.9881 48.2913 42.1133 47.7798 40.9827 48.2374C39.8656 48.695 39.5426 49.6641 39.4484 50.7677C37.3757 50.7677 35.3165 50.7677 33.2304 50.7677C33.1765 50.512 33.1362 50.2563 33.0823 49.9871C32.9343 49.2334 32.5305 48.6546 31.8306 48.3182C31.0769 47.9413 30.7943 47.9952 30.2156 48.5873C28.1429 50.7139 25.0473 51.3734 22.3152 50.2697C19.5695 49.1661 17.8199 46.5147 17.7391 43.5537C17.6853 41.6964 18.3178 41.01 20.1886 41.0907C21.6287 41.158 23.0823 41.1042 24.5224 41.1042C24.5493 41.0907 24.5763 41.0773 24.6974 41.0638ZM35.4915 32.0059C35.7606 31.7502 35.9491 31.5887 36.124 31.4137C39.2734 28.2105 40.6597 24.3747 40.2559 19.9063C39.7176 14.0382 35.303 8.97766 29.6099 7.59139C27.6987 7.13378 25.7741 7.17416 23.836 7.18762C21.0096 7.20108 18.3986 7.9817 16.0298 9.52948C8.45243 14.4689 7.46993 25.411 14.0514 31.6022C14.1725 31.7233 14.3071 31.8175 14.5224 32.0059C14.5224 30.6466 14.5224 29.4353 14.5224 28.2105C16.151 28.2105 17.7391 28.2105 19.3542 28.2105C19.3542 31.4406 19.3542 34.6304 19.3542 37.8336C20.4444 37.8336 21.4942 37.8336 22.5978 37.8336C22.5978 35.1419 22.5978 32.477 22.5978 29.8256C24.2263 29.8256 25.801 29.8256 27.4296 29.8256C27.4296 32.5174 27.4296 35.1822 27.4296 37.8336C28.5332 37.8336 29.583 37.8336 30.6732 37.8336C30.6732 32.4501 30.6732 27.1069 30.6732 21.7637C32.3017 21.7637 33.8899 21.7637 35.4915 21.7637C35.4915 25.1419 35.4915 28.5066 35.4915 32.0059ZM40.0271 28.9507C44.7916 31.2522 46.2721 36.6627 44.3609 40.8081C42.6651 44.4958 37.6314 47.5914 32.1536 44.9534C31.9921 45.4649 31.8172 45.9898 31.6422 46.5281C33.0823 46.9184 34.0379 47.7798 34.5359 49.1526C35.7203 49.1526 36.9047 49.1526 38.0621 49.1526C39.2196 46.7435 40.8885 46.0032 43.4053 46.7704C43.5265 46.8108 43.7283 46.7435 43.8226 46.6493C44.5224 45.9763 45.2223 45.2899 45.8952 44.5766C46.0029 44.4689 46.0164 44.2266 45.9894 44.0651C45.9222 43.6075 45.7203 43.1499 45.7068 42.6923C45.6934 40.7946 46.6489 39.5295 48.4121 38.8027C48.4121 37.7125 48.4255 36.5954 48.3986 35.4918C48.3986 35.3707 48.2102 35.2092 48.0756 35.1419C46.0702 34.2267 45.2088 32.1136 46.0029 30.0544C46.0971 29.7987 46.0567 29.6641 45.8818 29.4891C45.1954 28.8162 44.5359 28.1297 43.836 27.4703C43.7283 27.3626 43.4995 27.3357 43.3246 27.3626C42.8266 27.4433 42.3017 27.726 41.8575 27.6183C40.7539 27.3357 40.3771 27.9413 40.0944 28.7758C40.081 28.8296 40.0675 28.87 40.0271 28.9507ZM5.59914 19.9602C6.31246 19.3007 7.18729 19.1257 8.15634 19.4218C8.25055 18.8431 8.34476 18.3182 8.43898 17.8067C8.26401 17.6991 8.11596 17.6183 7.96791 17.5376C4.18595 15.2764 3.72834 10.0409 7.0527 7.13378C9.54261 4.96689 13.2438 5.04765 15.6933 7.30875C15.8279 7.42988 16.0971 7.56447 16.2182 7.51063C17.1873 7.10687 18.1429 6.64926 19.0446 6.23203C18.3582 5.54563 17.6449 4.8323 16.9181 4.10552C16.1779 4.73809 15.3165 4.96689 14.3475 4.54967C13.3919 4.1459 12.9477 3.35182 12.867 2.36932C11.7768 2.36932 10.727 2.36932 9.6772 2.36932C9.59645 4.34778 7.3488 5.58601 5.58568 4.10552C4.84544 4.84576 4.09173 5.58601 3.33803 6.33971C3.98406 7.09341 4.22632 7.95478 3.8091 8.93728C3.40533 9.89287 2.62471 10.337 1.61529 10.4312C1.61529 11.5214 1.61529 12.5712 1.61529 13.621C3.66105 13.7152 4.80506 16.0167 3.33803 17.7125C4.09173 18.4528 4.83198 19.2065 5.59914 19.9602ZM19.3676 42.7192C19.2331 45.2495 20.1079 47.2415 22.3152 48.4528C24.4147 49.5968 26.5143 49.4083 28.4121 47.9817C30.1483 46.6762 30.7943 44.8592 30.6193 42.7192C26.8643 42.7192 23.1361 42.7192 19.3676 42.7192ZM32.2748 36.6627C32.2748 39.5968 34.509 41.5214 37.1469 40.983C38.9639 40.6197 40.3232 38.9642 40.3501 37.0934C40.3771 35.1957 39.085 33.5537 37.2546 33.123C36.945 33.0557 36.7162 33.1096 36.4201 33.3114C35.303 34.0786 34.1859 34.8458 33.015 35.5187C32.4767 35.8417 32.0863 36.0974 32.2748 36.6627ZM29.4349 39.4622C29.6503 39.9063 29.8118 40.2293 29.9598 40.5658C30.1213 40.9292 30.3501 41.1042 30.7943 41.1176C31.6018 41.1311 32.2479 41.8175 32.2613 42.6385C32.2613 43.0153 32.4094 43.2038 32.7189 43.3787C36.0029 45.2495 40.1886 44.2805 42.3286 41.1446C44.4417 38.0355 43.836 33.769 40.902 31.4272C40.3771 31.01 39.7714 30.6869 39.2061 30.3236C38.8158 30.835 38.4928 31.2388 38.1698 31.656C40.2425 32.8808 40.6328 33.2038 41.2115 34.1997C41.9114 35.411 42.1267 36.7031 41.8845 38.0894C41.5211 40.2563 39.7041 42.1271 37.4968 42.5847C34.9666 43.1096 32.9208 42.1001 31.1846 39.4622C30.6193 39.4622 30.081 39.4622 29.4349 39.4622ZM14.6032 8.54697C13.2438 7.20108 11.1981 6.81077 9.42148 7.55101C7.60452 8.30471 6.42013 10.0813 6.43359 12.0598C6.43359 13.769 7.53723 15.6129 8.91004 16.1782C9.04463 15.8552 9.1523 15.5187 9.31381 15.2092C9.48877 14.8727 9.4484 14.6843 9.1523 14.4151C8.18326 13.5537 7.81986 12.4366 8.1698 11.1715C8.50627 9.93325 9.34072 9.16609 10.5924 8.86999C11.6153 8.62773 12.517 8.92383 13.3515 9.54294C13.7687 9.20646 14.1725 8.88345 14.6032 8.54697ZM32.2748 34.1324C32.7055 33.8902 33.0689 33.6748 33.4457 33.4999C33.7956 33.3384 33.8899 33.0961 33.8899 32.7058C33.8764 29.7717 33.8764 26.8242 33.8764 23.8902C33.8764 23.7152 33.8764 23.5402 33.8764 23.3653C33.2977 23.3653 32.7862 23.3653 32.2748 23.3653C32.2748 26.9454 32.2748 30.4851 32.2748 34.1324ZM24.2263 31.4137C24.2263 33.5806 24.2263 35.7071 24.2263 37.8336C24.7647 37.8336 25.2761 37.8336 25.7741 37.8336C25.7741 35.6802 25.7741 33.5537 25.7741 31.4137C25.2492 31.4137 24.7647 31.4137 24.2263 31.4137ZM16.124 29.8121C16.124 30.8888 16.124 31.9117 16.124 32.9346C16.124 33.0557 16.1644 33.2307 16.2452 33.2845C16.7028 33.5806 17.1873 33.8363 17.6987 34.1324C17.6987 32.6385 17.6987 31.2253 17.6987 29.8121C17.1604 29.8121 16.6759 29.8121 16.124 29.8121ZM10.2559 13.2307C10.8885 12.3693 11.5076 11.5483 12.1267 10.7139C11.4403 10.2159 10.5655 10.337 10.0271 10.9965C9.47531 11.6829 9.55607 12.5577 10.2559 13.2307ZM25.5453 39.4756C25.9087 40.0005 26.2586 40.512 26.6086 41.01C26.6489 41.0638 26.7566 41.0907 26.8239 41.0907C27.3219 41.0907 27.8199 41.0907 28.3582 41.0907C28.1698 40.5658 27.9948 40.0948 27.8064 39.6371C27.766 39.5564 27.6045 39.4756 27.4968 39.4756C26.8508 39.4622 26.1913 39.4756 25.5453 39.4756Z" fill="#1C2126"/>
<path d="M9.67584 50.7532C9.11056 50.7532 8.61258 50.7532 8.07422 50.7532C8.07422 45.9349 8.07422 41.1166 8.07422 36.2579C8.35686 36.2579 8.62604 36.2579 9.01635 36.2579C8.14152 34.8448 7.30706 33.5258 6.43223 32.126C5.5574 33.5258 4.72295 34.8582 3.86157 36.2445C4.21151 36.2445 4.48068 36.2445 4.77678 36.2445C4.77678 38.9363 4.77678 41.6011 4.77678 44.2929C4.2788 44.2929 3.76736 44.2929 3.21554 44.2929C3.21554 42.1799 3.21554 40.0668 3.21554 37.8999C2.46184 37.8999 1.74852 37.8999 0.914062 37.8999C2.7714 34.912 4.5749 32.0318 6.43223 29.0709C8.27611 32.0184 10.0796 34.8986 11.9235 37.8461C11.1294 37.8461 10.4295 37.8461 9.6893 37.8461C9.67584 42.1664 9.67584 46.4329 9.67584 50.7532Z" fill="#1C2126"/>
<path d="M46.8227 21.6824C46.2306 21.6824 45.7326 21.6824 45.2211 21.6824C45.2211 16.8371 45.2211 12.0323 45.2211 7.18708C45.5172 7.18708 45.773 7.18708 46.1633 7.18708C45.2884 5.78735 44.4674 4.46837 43.5791 3.05518C42.7178 4.44145 41.8833 5.77389 41.0085 7.16016C41.3584 7.16016 41.6276 7.16016 41.9372 7.16016C41.9372 8.26379 41.9372 9.31359 41.9372 10.3769C41.4257 10.3769 40.9277 10.3769 40.3759 10.3769C40.3759 9.86541 40.3759 9.35397 40.3759 8.80215C39.6088 8.80215 38.8954 8.80215 38.0879 8.80215C39.9318 5.84118 41.7218 2.96097 43.5791 0C45.423 2.94751 47.2131 5.81427 49.0569 8.76178C48.2898 8.76178 47.5899 8.76178 46.8227 8.76178C46.8227 13.0956 46.8227 17.362 46.8227 21.6824Z" fill="#1C2126"/>
<path d="M4.77825 50.7531C4.23989 50.7531 3.74191 50.7531 3.23047 50.7531C3.23047 49.1515 3.23047 47.5902 3.23047 45.9752C3.72845 45.9752 4.23989 45.9752 4.77825 45.9752C4.77825 47.5364 4.77825 49.1246 4.77825 50.7531Z" fill="#1C2126"/>
<path d="M21.0219 23.3244C21.5334 21.5612 22.6101 20.4711 24.4001 20.1481C25.2615 20 26.0825 20.1481 26.8362 20.5653C27.1592 20.7402 27.3207 20.6864 27.563 20.4441C28.1552 19.825 28.7608 19.2194 29.3799 18.6272C29.6222 18.3984 29.6626 18.2234 29.5011 17.9004C28.707 16.393 28.9492 14.603 30.0932 13.3513C31.2373 12.0996 33.0004 11.6824 34.5616 12.3149C36.1229 12.9341 37.1323 14.4549 37.1054 16.1373C37.065 19.0848 33.9156 20.996 31.2776 19.6635C30.9277 19.4886 30.7393 19.502 30.4701 19.7847C29.8779 20.4307 29.2453 21.0363 28.6262 21.642C28.4513 21.817 28.3974 21.9381 28.5186 22.1938C29.6491 24.4415 28.7474 26.9717 26.5132 27.86C24.2655 28.7618 21.8833 27.5909 21.1027 25.1952C21.0758 25.1144 21.0488 25.0337 21.0085 24.926C20.497 24.926 19.9721 24.8991 19.4472 24.9394C19.2857 24.9529 19.1107 25.1548 19.0165 25.3028C18.4378 26.2584 17.3476 26.7295 16.2978 26.4468C15.248 26.1642 14.5212 25.2355 14.4943 24.1588C14.4809 23.0552 15.2076 22.0861 16.2574 21.79C17.3207 21.4939 18.4513 21.9246 18.9762 22.9071C19.1646 23.2436 19.353 23.3513 19.7164 23.3244C20.1471 23.2974 20.5643 23.3244 21.0219 23.3244ZM35.4903 16.0431C35.4903 14.7241 34.4001 13.6339 33.0946 13.6339C31.7487 13.6205 30.6585 14.7241 30.6585 16.0565C30.6585 17.3755 31.7487 18.4657 33.0542 18.4657C34.4001 18.4791 35.5037 17.389 35.4903 16.0431ZM27.4284 24.1184C27.4284 22.7995 26.3382 21.7227 25.0192 21.7093C23.6733 21.7093 22.5832 22.7995 22.5832 24.1454C22.5832 25.4643 23.6733 26.5545 24.9923 26.5545C26.3247 26.5545 27.4284 25.4509 27.4284 24.1184ZM16.9439 23.3244C16.5132 23.3244 16.1363 23.6743 16.1363 24.1184C16.1363 24.5491 16.4862 24.926 16.9304 24.9394C17.3611 24.9394 17.7379 24.5895 17.7514 24.1454C17.7379 23.7012 17.3745 23.3378 16.9439 23.3244Z" fill="#1C2126"/>
<path d="M33.0948 16.8643C32.6641 16.8777 32.2873 16.5278 32.2738 16.0836C32.2604 15.6395 32.6103 15.2761 33.0544 15.2626C33.4851 15.2492 33.862 15.5991 33.8889 16.0433C33.8889 16.4605 33.539 16.8508 33.0948 16.8643Z" fill="#1C2126"/>
<path d="M24.9933 24.9396C24.5492 24.9261 24.1992 24.5627 24.1992 24.1186C24.2127 23.6745 24.5761 23.3245 25.0202 23.3245C25.4644 23.338 25.8143 23.7014 25.8143 24.1455C25.8008 24.5762 25.424 24.9396 24.9933 24.9396Z" fill="#1C2126"/>
</svg>
