<svg width="40" height="40" viewBox="0 0 40 40" fill="none" xmlns="http://www.w3.org/2000/svg">
<rect width="40" height="40" rx="20" fill="url(#paint0_linear_416_10548)"/>
<path d="M15 14.5C15 14.1022 15.158 13.7206 15.4393 13.4393C15.7206 13.158 16.1022 13 16.5 13H23.5C23.8978 13 24.2794 13.158 24.5607 13.4393C24.842 13.7206 25 14.1022 25 14.5V17H24V14.5C24 14.3674 23.9473 14.2402 23.8536 14.1464C23.7598 14.0527 23.6326 14 23.5 14H16.5C16.3674 14 16.2402 14.0527 16.1464 14.1464C16.0527 14.2402 16 14.3674 16 14.5V18H21.5C21.2776 18.2958 21.1238 18.6374 21.05 19H15C14.7348 19 14.4804 19.1054 14.2929 19.2929C14.1054 19.4804 14 19.7348 14 20V25.5C14 25.6326 14.0527 25.7598 14.1464 25.8536C14.2402 25.9473 14.3674 26 14.5 26H21.05C21.125 26.37 21.281 26.71 21.5 27H14.5C14.1022 27 13.7206 26.842 13.4393 26.5607C13.158 26.2794 13 25.8978 13 25.5V20C13 19.4696 13.2107 18.9609 13.5858 18.5858C13.9609 18.2107 14.4696 18 15 18V14.5ZM22 19.5C22 19.1022 22.158 18.7206 22.4393 18.4393C22.7206 18.158 23.1022 18 23.5 18H25.5C25.8978 18 26.2794 18.158 26.5607 18.4393C26.842 18.7206 27 19.1022 27 19.5V25.5C27 25.8978 26.842 26.2794 26.5607 26.5607C26.2794 26.842 25.8978 27 25.5 27H23.5C23.1022 27 22.7206 26.842 22.4393 26.5607C22.158 26.2794 22 25.8978 22 25.5V19.5ZM23.5 19C23.3674 19 23.2402 19.0527 23.1464 19.1464C23.0527 19.2402 23 19.3674 23 19.5V25.5C23 25.6326 23.0527 25.7598 23.1464 25.8536C23.2402 25.9473 23.3674 26 23.5 26H25.5C25.6326 26 25.7598 25.9473 25.8536 25.8536C25.9473 25.7598 26 25.6326 26 25.5V19.5C26 19.3674 25.9473 19.2402 25.8536 19.1464C25.7598 19.0527 25.6326 19 25.5 19H23.5ZM15.625 20C15.7908 20 15.9497 20.0658 16.0669 20.1831C16.1842 20.3003 16.25 20.4592 16.25 20.625C16.25 20.7908 16.1842 20.9497 16.0669 21.0669C15.9497 21.1842 15.7908 21.25 15.625 21.25C15.4592 21.25 15.3003 21.1842 15.1831 21.0669C15.0658 20.9497 15 20.7908 15 20.625C15 20.4592 15.0658 20.3003 15.1831 20.1831C15.3003 20.0658 15.4592 20 15.625 20ZM15.625 22.25C15.7908 22.25 15.9497 22.3158 16.0669 22.4331C16.1842 22.5503 16.25 22.7092 16.25 22.875C16.25 23.0408 16.1842 23.1997 16.0669 23.3169C15.9497 23.4342 15.7908 23.5 15.625 23.5C15.4592 23.5 15.3003 23.4342 15.1831 23.3169C15.0658 23.1997 15 23.0408 15 22.875C15 22.7092 15.0658 22.5503 15.1831 22.4331C15.3003 22.3158 15.4592 22.25 15.625 22.25ZM18.5 23C18.5 22.8342 18.4342 22.6753 18.3169 22.5581C18.1997 22.4408 18.0408 22.375 17.875 22.375C17.7092 22.375 17.5503 22.4408 17.4331 22.5581C17.3158 22.6753 17.25 22.8342 17.25 23C17.25 23.1658 17.3158 23.3247 17.4331 23.4419C17.5503 23.5592 17.7092 23.625 17.875 23.625C18.0408 23.625 18.1997 23.5592 18.3169 23.4419C18.4342 23.3247 18.5 23.1658 18.5 23ZM17.875 20C18.0408 20 18.1997 20.0658 18.3169 20.1831C18.4342 20.3003 18.5 20.4592 18.5 20.625C18.5 20.7908 18.4342 20.9497 18.3169 21.0669C18.1997 21.1842 18.0408 21.25 17.875 21.25C17.7092 21.25 17.5503 21.1842 17.4331 21.0669C17.3158 20.9497 17.25 20.7908 17.25 20.625C17.25 20.4592 17.3158 20.3003 17.4331 20.1831C17.5503 20.0658 17.7092 20 17.875 20Z" fill="white"/>
<defs>
<linearGradient id="paint0_linear_416_10548" x1="20" y1="0" x2="20" y2="40" gradientUnits="userSpaceOnUse">
<stop stop-color="#057EED"/>
<stop offset="1" stop-color="#057EED" stop-opacity="0"/>
</linearGradient>
</defs>
</svg>
