<svg width="40" height="40" viewBox="0 0 40 40" fill="none" xmlns="http://www.w3.org/2000/svg">
<rect width="40" height="40" rx="20" fill="url(#paint0_linear_416_10539)"/>
<path fill-rule="evenodd" clip-rule="evenodd" d="M26.763 12.075C26.8354 12.1198 26.8952 12.1824 26.9367 12.2567C26.9782 12.3311 27 12.4148 27 12.5V27.5C27 27.6326 26.9473 27.7598 26.8536 27.8536C26.7598 27.9473 26.6326 28 26.5 28H23.5C23.3674 28 23.2402 27.9473 23.1464 27.8536C23.0527 27.7598 23 27.6326 23 27.5V26H22V27.5C22 27.6326 21.9473 27.7598 21.8536 27.8536C21.7598 27.9473 21.6326 28 21.5 28H12.5C12.3674 28 12.2402 27.9473 12.1464 27.8536C12.0527 27.7598 12 27.6326 12 27.5V22C12.0001 21.8951 12.0331 21.7929 12.0945 21.7078C12.1559 21.6228 12.2425 21.5592 12.342 21.526L18 19.64V16.5C18 16.4072 18.0258 16.3163 18.0746 16.2373C18.1233 16.1584 18.1931 16.0946 18.276 16.053L26.276 12.053C26.3523 12.0148 26.4371 11.9968 26.5224 12.0006C26.6076 12.0045 26.6904 12.0301 26.763 12.075ZM18 20.694L13 22.36V27H18V20.694ZM19 27H21V25.5C21 25.3674 21.0527 25.2402 21.1464 25.1465C21.2402 25.0527 21.3674 25 21.5 25H23.5C23.6326 25 23.7598 25.0527 23.8536 25.1465C23.9473 25.2402 24 25.3674 24 25.5V27H26V13.309L19 16.809V27Z" fill="white"/>
<path d="M14 23H15V24H14V23ZM16 23H17V24H16V23ZM14 25H15V26H14V25ZM16 25H17V26H16V25ZM20 21H21V22H20V21ZM22 21H23V22H22V21ZM20 23H21V24H20V23ZM22 23H23V24H22V23ZM24 21H25V22H24V21ZM24 23H25V24H24V23ZM20 19H21V20H20V19ZM22 19H23V20H22V19ZM24 19H25V20H24V19ZM20 17H21V18H20V17ZM22 17H23V18H22V17ZM24 17H25V18H24V17ZM24 15H25V16H24V15Z" fill="white"/>
<defs>
<linearGradient id="paint0_linear_416_10539" x1="20" y1="0" x2="20" y2="40" gradientUnits="userSpaceOnUse">
<stop stop-color="#057EED"/>
<stop offset="1" stop-color="#057EED" stop-opacity="0"/>
</linearGradient>
</defs>
</svg>
