<svg width="50" height="50" viewBox="0 0 50 50" fill="none" xmlns="http://www.w3.org/2000/svg">
<g id="Frame" clip-path="url(#clip0_686_10350)">
<path id="Vector" d="M15.3136 19.9286C15.3136 19.3996 15.3136 18.9236 15.3136 18.4475C15.3269 16.8606 16.2658 15.9482 17.8659 15.9349C18.6196 15.9349 19.3866 15.9349 20.233 15.9349C20.233 15.7234 20.233 15.5382 20.233 15.3531C20.233 11.1346 20.233 6.91616 20.233 2.71092C20.233 0.938905 21.1454 0.013224 22.9174 0.013224C28.9476 0.013224 34.991 0.013224 41.0211 0C41.5236 0 41.8939 0.145464 42.251 0.502513C44.7371 3.01508 47.2496 5.51441 49.749 8.01375C49.8944 8.15922 50.0135 8.41047 50.0135 8.60883C50.0267 17.707 50.0135 26.7919 50.0135 35.89C50.0135 36.1545 50.0002 36.4189 49.9473 36.6702C49.6828 37.7281 48.7836 38.429 47.6596 38.429C45.3586 38.4422 43.0576 38.429 40.7699 38.4422C40.5186 38.4422 40.2277 38.5612 40.0293 38.7199C36.7101 41.6027 33.3776 44.4724 30.0849 47.3816C28.8418 48.4792 27.4401 48.7173 25.8399 48.5189C22.005 48.0561 18.1568 47.6594 14.3086 47.2362C13.9648 47.1965 13.621 47.1833 13.2771 47.1172C11.7696 46.8659 10.5662 47.4345 9.54796 48.5057C9.29671 48.7702 9.0719 49.0479 8.80742 49.3124C8.49004 49.6297 8.00075 49.6429 7.6966 49.3652C7.4189 49.114 7.366 48.6644 7.63048 48.3338C9.20414 46.4163 11.0555 45.2129 13.7135 45.5567C18.0378 46.1121 22.3753 46.5353 26.7127 47.0114C27.5062 47.1039 28.207 46.8791 28.8154 46.3369C33.338 42.3433 37.8606 38.3496 42.3832 34.356C43.256 33.5758 43.4676 32.8617 43.0576 32.055C42.6212 31.2087 41.5369 30.6929 40.5715 30.9177C40.2409 30.9971 39.9103 31.1426 39.6326 31.3409C36.5646 33.6154 33.5099 35.9032 30.4684 38.2042C30.3361 38.31 30.2303 38.548 30.2435 38.7199C30.5212 41.1796 28.3525 43.2425 25.9854 42.7797C23.2084 42.2375 20.4313 41.7614 17.6543 41.2457C17.1518 41.1531 16.8079 40.73 16.8873 40.32C16.9666 39.8704 17.3898 39.5927 17.9584 39.6853C20.0611 40.0555 22.1504 40.4523 24.2398 40.8358C24.9407 40.968 25.6416 41.087 26.3425 41.2193C27.4797 41.4176 28.4319 40.8225 28.6699 39.7382C28.9211 38.6406 28.2732 37.5826 27.1491 37.3314C25.9061 37.0405 24.663 36.7892 23.42 36.5247C19.7701 35.7445 16.1203 34.9775 12.4705 34.1841C11.3068 33.9328 10.3414 34.1841 9.48184 35.0172C6.88993 37.5033 4.27158 39.9497 1.66645 42.4094C1.53421 42.5284 1.40197 42.6607 1.25651 42.7665C0.899457 43.0177 0.515961 42.9781 0.225032 42.6739C-0.0658961 42.3697 -0.0658961 41.9862 0.225032 41.6424C0.304376 41.5499 0.38372 41.4837 0.476288 41.4044C1.91771 40.0423 3.35912 38.6802 4.82699 37.3446C5.07825 37.1066 5.18404 36.8818 5.18404 36.538C5.17081 31.8963 5.17081 27.2415 5.17081 22.5998C5.17081 20.8146 6.09649 19.8889 7.89496 19.8889C10.1563 19.8889 12.4308 19.8889 14.6921 19.8889C14.864 19.9286 15.0624 19.9286 15.3136 19.9286ZM21.886 15.9349C23.8034 15.9349 25.6416 15.9217 27.4665 15.9349C28.9476 15.9482 29.9129 16.9135 29.9262 18.3946C29.9262 18.8839 29.9262 19.3732 29.9262 19.9154C30.1774 19.9154 30.3626 19.9154 30.5609 19.9154C32.8751 19.9154 35.1893 19.9154 37.5035 19.9154C39.1169 19.9154 40.069 20.8675 40.069 22.4676C40.069 24.6496 40.069 26.8315 40.069 29.0135C40.069 29.1986 40.069 29.3705 40.069 29.5028C40.5451 29.5028 40.9682 29.4896 41.3914 29.5028C42.8989 29.5821 44.2478 30.5871 44.7238 31.9889C45.1867 33.351 44.7635 34.594 43.494 35.6652C43.0973 35.9958 42.7006 36.3528 42.2245 36.7628C42.489 36.776 42.6477 36.7892 42.8064 36.7892C44.2875 36.7892 45.7818 36.7892 47.2629 36.7892C48.2943 36.7892 48.572 36.5115 48.572 35.4668C48.572 26.9902 48.572 18.5136 48.572 10.0238C48.572 9.85189 48.572 9.66675 48.572 9.44195C48.3472 9.44195 48.1621 9.44195 47.9902 9.44195C45.9272 9.44195 43.8643 9.44195 41.7881 9.44195C40.8889 9.44195 40.6905 9.24359 40.6905 8.33113C40.6905 6.26818 40.6905 4.20524 40.6905 2.12907C40.6905 1.94393 40.6773 1.74557 40.6641 1.53399C40.4393 1.53399 40.2673 1.53399 40.1087 1.53399C34.4091 1.53399 28.7096 1.53399 22.9968 1.53399C22.0843 1.53399 21.8595 1.75879 21.8595 2.67125C21.8595 6.90294 21.8595 11.1346 21.8595 15.3663C21.886 15.5514 21.886 15.7101 21.886 15.9349ZM6.74447 35.6784C7.39245 35.0569 7.9743 34.5147 8.54294 33.9593C9.6802 32.8484 11.0026 32.5046 12.5498 32.8352C16.8212 33.7609 21.1058 34.6337 25.3771 35.5726C26.8185 35.89 28.4054 35.9164 29.4237 37.2256C29.503 37.1992 29.5427 37.1859 29.5691 37.1727C32.3991 34.9775 35.229 32.7823 38.0457 30.5607C38.178 30.4549 38.2705 30.2036 38.2705 30.0185C38.2837 28.4713 38.2837 26.9109 38.2837 25.3637C38.2837 25.2579 38.2705 25.1521 38.2573 25.0198C38.0589 25.0992 37.9003 25.1653 37.7548 25.2314C32.8884 27.2944 28.0351 29.3441 23.1819 31.4203C22.7455 31.6054 22.362 31.6318 21.8992 31.4335C17.5882 29.5953 13.2771 27.7704 8.96611 25.9323C8.23878 25.6281 7.51146 25.324 6.7577 25.0066C6.74447 28.5771 6.74447 32.0815 6.74447 35.6784ZM22.653 21.5684C17.7733 21.5684 12.9069 21.5684 8.0272 21.5684C7.88174 21.5684 7.72305 21.5684 7.57758 21.5684C7.10152 21.5948 6.85026 21.8328 6.81059 22.2957C6.79737 22.4808 6.82382 22.666 6.79737 22.8379C6.73125 23.2346 6.91638 23.4065 7.27343 23.5652C12.0341 25.562 16.7947 27.5721 21.5289 29.6218C22.3356 29.9656 22.9836 29.9656 23.7902 29.6086C28.5112 27.5588 33.2586 25.562 37.9928 23.5387C38.1515 23.4726 38.3631 23.3801 38.416 23.2478C38.7995 22.3618 38.2573 21.5551 37.3184 21.5551C32.4255 21.5684 27.5458 21.5684 22.653 21.5684ZM16.8873 19.8889C20.709 19.8889 24.4779 19.8889 28.2864 19.8889C28.2864 19.3996 28.2864 18.9632 28.2864 18.5136C28.2864 17.7334 28.0616 17.5086 27.2814 17.5086C24.9143 17.5086 22.5604 17.5086 20.1933 17.5086C19.3734 17.5086 18.5403 17.5086 17.7204 17.5086C17.2576 17.5086 16.9402 17.7202 16.9005 18.1962C16.8476 18.7517 16.8873 19.3071 16.8873 19.8889ZM47.4215 7.88151C45.6363 6.16239 43.9304 4.53584 42.3038 2.96218C42.3038 4.49616 42.3038 6.18884 42.3038 7.88151C43.9833 7.88151 45.6363 7.88151 47.4215 7.88151Z" fill="#14191D"/>
<path id="Vector_2" d="M44.2339 25.1527C44.6174 25.1527 45.0009 25.1395 45.3712 25.1527C45.8869 25.1792 46.1911 25.4966 46.1778 25.9594C46.1646 26.409 45.8737 26.7 45.3712 26.7132C44.6174 26.7264 43.8504 26.7264 43.0966 26.7132C42.5941 26.7 42.2635 26.3429 42.2767 25.8933C42.29 25.4437 42.5809 25.166 43.0966 25.1395C43.4669 25.1395 43.8504 25.1527 44.2339 25.1527Z" fill="#14191D"/>
<path id="Vector_3" d="M44.2208 20.9475C43.8373 20.9475 43.4538 20.9607 43.0835 20.9475C42.581 20.9211 42.2504 20.564 42.2769 20.1276C42.2901 19.678 42.5942 19.4003 43.11 19.4003C43.8637 19.3871 44.6307 19.3871 45.3845 19.4003C45.887 19.4135 46.178 19.6912 46.1912 20.1541C46.2044 20.6037 45.9135 20.9211 45.4242 20.9475C45.0142 20.9607 44.6175 20.9475 44.2208 20.9475Z" fill="#14191D"/>
<path id="Vector_4" d="M44.2334 13.6201C44.6433 13.6201 45.0533 13.6069 45.4764 13.6201C45.9128 13.6466 46.1773 13.9375 46.1905 14.3607C46.2038 14.7971 45.9261 15.1277 45.4764 15.1409C44.6698 15.1673 43.8631 15.1673 43.0565 15.1409C42.5936 15.1277 42.2762 14.7838 42.2895 14.3474C42.3027 13.9243 42.5936 13.6334 43.0565 13.6201C43.44 13.5937 43.8367 13.6069 44.2334 13.6201C44.2334 13.6069 44.2334 13.6069 44.2334 13.6201Z" fill="#14191D"/>
<path id="Vector_5" d="M25.0195 9.44138C25.0195 8.91242 25.0195 8.43635 25.0195 7.93384C25.522 7.93384 26.0113 7.93384 26.5403 7.93384C26.5403 8.42313 26.5403 8.91242 26.5403 9.44138C26.0378 9.44138 25.5485 9.44138 25.0195 9.44138Z" fill="#14191D"/>
<path id="Vector_6" d="M32.0021 9.4419C31.4996 9.4419 31.0235 9.4419 30.5078 9.4419C30.5078 8.93939 30.5078 8.4501 30.5078 7.92114C30.9971 7.92114 31.4864 7.92114 32.0021 7.92114C32.0021 8.41043 32.0021 8.89972 32.0021 9.4419Z" fill="#14191D"/>
<path id="Vector_7" d="M35.9824 7.90735C36.4717 7.90735 36.9478 7.90735 37.4635 7.90735C37.4635 8.40986 37.4635 8.91237 37.4635 9.42811C36.9742 9.42811 36.4982 9.42811 35.9824 9.42811C35.9824 8.93882 35.9824 8.43631 35.9824 7.90735Z" fill="#14191D"/>
</g>
<defs>
<clipPath id="clip0_686_10350">
<rect width="50" height="49.5901" fill="white"/>
</clipPath>
</defs>
</svg>
