<svg width="40" height="40" viewBox="0 0 40 40" fill="none" xmlns="http://www.w3.org/2000/svg">
<g id="Frame 224">
<rect width="40" height="40" rx="20" fill="url(#paint0_linear_416_10535)"/>
<g id="Group 56">
<path id="Ellipse 16" d="M25.5 18C25.5 18.7033 25.173 19.6533 24.6179 20.7316C24.0712 21.7938 23.3368 22.918 22.5941 23.9507C21.8527 24.9816 21.1102 25.9116 20.5525 26.5844C20.3368 26.8447 20.149 27.0662 20 27.2396C19.851 27.0662 19.6632 26.8447 19.4475 26.5844C18.8898 25.9116 18.1473 24.9816 17.4059 23.9507C16.6632 22.918 15.9288 21.7938 15.3821 20.7316C14.827 19.6533 14.5 18.7033 14.5 18C14.5 14.9624 16.9624 12.5 20 12.5C23.0376 12.5 25.5 14.9624 25.5 18Z" stroke="white"/>
<circle id="Ellipse 17" cx="20" cy="18" r="1.5" stroke="white"/>
</g>
</g>
<defs>
<linearGradient id="paint0_linear_416_10535" x1="20" y1="0" x2="20" y2="40" gradientUnits="userSpaceOnUse">
<stop stop-color="#057EED"/>
<stop offset="1" stop-color="#057EED" stop-opacity="0"/>
</linearGradient>
</defs>
</svg>
