<svg width="40" height="40" viewBox="0 0 40 40" fill="none" xmlns="http://www.w3.org/2000/svg">
<rect width="40" height="40" rx="20" fill="url(#paint0_linear_416_10552)"/>
<path d="M26.224 14.667H13.7795C13.5438 14.667 13.3177 14.7606 13.151 14.9273C12.9843 15.094 12.8906 15.3201 12.8906 15.5559V24.4448C12.8906 24.6805 12.9843 24.9066 13.151 25.0733C13.3177 25.24 13.5438 25.3337 13.7795 25.3337H26.224C26.4597 25.3337 26.6858 25.24 26.8525 25.0733C27.0192 24.9066 27.1128 24.6805 27.1128 24.4448V15.5559C27.1128 15.3201 27.0192 15.094 26.8525 14.9273C26.6858 14.7606 26.4597 14.667 26.224 14.667ZM25.5395 24.4448H14.5173L17.6284 21.227L16.9884 20.6092L13.7795 23.9292V16.2314L19.304 21.7292C19.4705 21.8948 19.6958 21.9877 19.9306 21.9877C20.1655 21.9877 20.3907 21.8948 20.5573 21.7292L26.224 16.0937V23.8714L22.9528 20.6003L22.3262 21.227L25.5395 24.4448ZM14.3617 15.5559H25.504L19.9306 21.0981L14.3617 15.5559Z" fill="white"/>
<defs>
<linearGradient id="paint0_linear_416_10552" x1="20" y1="0" x2="20" y2="40" gradientUnits="userSpaceOnUse">
<stop stop-color="#057EED"/>
<stop offset="1" stop-color="#057EED" stop-opacity="0"/>
</linearGradient>
</defs>
</svg>
