<svg width="50" height="50" viewBox="0 0 50 50" fill="none" xmlns="http://www.w3.org/2000/svg">
<g id="Frame" clip-path="url(#clip0_686_10362)">
<path id="Vector" d="M13.8675 50C13.2686 49.6875 12.6175 49.4531 12.0967 49.0495C11.4066 48.5156 11.068 47.7214 11.016 46.8359C11.0029 46.5886 11.0029 46.3542 11.0029 46.1068C11.0029 41.0156 11.0029 35.9245 11.0029 30.8333C11.0029 28.8932 11.0029 26.9662 11.0029 25.0261C11.016 22.7865 12.4222 21.3802 14.6618 21.3802C16.667 21.3802 18.6592 21.3802 20.6644 21.3802C20.8467 21.3802 21.016 21.3802 21.2373 21.3802C21.2503 21.1719 21.2633 21.0026 21.2633 20.8203C21.2633 19.7526 21.2503 18.6719 21.2633 17.6042C21.2894 16.0156 22.4222 14.8698 24.0107 14.8568C28.3206 14.8438 32.6305 14.8438 36.9404 14.8568C38.542 14.8568 39.7008 16.0287 39.7139 17.6432C39.7269 18.8281 39.7139 20.013 39.7269 21.2109C39.7269 21.237 39.7399 21.2761 39.766 21.3802C39.9222 21.3802 40.0915 21.3802 40.2607 21.3802C42.279 21.3802 44.2972 21.3802 46.3154 21.3802C48.2165 21.3802 49.4014 22.2917 49.9092 24.1146C49.9222 24.1537 49.9613 24.1927 49.9873 24.2318C49.9873 31.875 49.9873 39.5313 49.9873 47.1745C49.6878 47.7474 49.4535 48.3464 49.0889 48.8672C48.6331 49.5182 47.8779 49.7656 47.1618 50C36.068 50 24.9613 50 13.8675 50ZM26.4326 35.3516C25.1956 35.1172 23.9717 34.9089 22.7738 34.6484C19.3883 33.9323 15.9248 33.5417 12.5785 32.5391C12.5785 32.6042 12.5524 32.7083 12.5524 32.8255C12.5524 37.3698 12.5524 41.9011 12.5524 46.4453C12.5524 47.6953 13.3206 48.4375 14.5837 48.4375C25.1956 48.4375 35.8076 48.4375 46.4066 48.4375C47.6696 48.4375 48.4248 47.6693 48.4248 46.3932C48.4248 41.888 48.4248 37.3828 48.4248 32.8646C48.4248 32.7344 48.4118 32.5912 48.3988 32.5C47.8389 32.6823 47.3311 32.9167 46.7972 33.0208C43.7894 33.6198 40.7686 34.1927 37.7477 34.7787C36.68 34.987 35.6253 35.1953 34.5446 35.4037C34.5446 35.9115 34.5446 36.3672 34.5446 36.8099C34.5186 39.1406 32.7477 40.9375 30.4821 40.9375C28.2165 40.9375 26.4587 39.1537 26.4196 36.8229C26.4326 36.3281 26.4326 35.8594 26.4326 35.3516ZM26.4326 33.763C26.4326 32.9167 26.4326 32.1224 26.4326 31.3281C26.4456 30.2604 27.0186 29.6745 28.0993 29.6745C29.6618 29.6745 31.2243 29.6745 32.7868 29.6745C33.9847 29.6745 34.5576 30.2344 34.5576 31.4323C34.5576 32.2136 34.5576 32.9818 34.5576 33.763C34.6618 33.763 34.7139 33.7761 34.7529 33.763C37.9561 33.1511 41.1722 32.5391 44.3753 31.9141C45.3128 31.7318 46.2633 31.5495 47.1748 31.263C48.0342 30.9896 48.4639 30.3516 48.4378 29.4011C48.4118 27.9818 48.4248 26.5755 48.4248 25.1563C48.4248 23.6068 47.7477 22.9297 46.1982 22.9297C42.2008 22.9297 38.1904 22.9297 34.193 22.9297C27.7998 22.9297 21.4066 22.9297 15.0133 22.9297C14.792 22.9297 14.5576 22.9297 14.3363 22.9427C13.3597 22.9948 12.5915 23.6979 12.5785 24.6875C12.5394 26.3672 12.5785 28.0339 12.5785 29.7136C12.5785 30.3386 12.8779 30.7813 13.3857 31.0677C13.7894 31.2891 14.2451 31.4583 14.7008 31.5495C17.5394 32.1094 20.3779 32.6432 23.2165 33.1771C24.2712 33.3594 25.3258 33.5547 26.4326 33.763ZM24.5576 18.0859C28.542 18.0859 32.4743 18.0859 36.4456 18.0859C36.4456 19.1797 36.4456 20.2474 36.4456 21.3151C37.0446 21.3151 37.5915 21.3151 38.1644 21.3151C38.1644 20.013 38.1904 18.75 38.1514 17.487C38.1383 16.8359 37.6175 16.4193 36.9274 16.4193C32.6305 16.4193 28.3467 16.4193 24.0498 16.4193C23.2946 16.4193 22.8389 16.875 22.8258 17.6302C22.8128 18.4766 22.8258 19.3229 22.8258 20.1693C22.8258 20.5469 22.8258 20.9375 22.8258 21.3281C23.4378 21.3281 23.9587 21.3281 24.5576 21.3281C24.5576 20.2214 24.5576 19.1537 24.5576 18.0859ZM28.0212 31.25C28.0212 33.2682 28.0212 35.2344 28.0212 37.1875C28.0212 37.2787 28.0472 37.3828 28.0732 37.474C28.3988 38.6979 29.5316 39.4792 30.7946 39.3359C32.0055 39.2057 32.9691 38.138 32.9821 36.849C33.0081 35.0651 32.9821 33.2682 32.9821 31.4844C32.9821 31.4063 32.9561 31.3281 32.943 31.237C31.3154 31.25 29.6878 31.25 28.0212 31.25ZM26.1462 19.6354C26.1462 20.2344 26.1462 20.7813 26.1462 21.3281C29.0628 21.3281 31.9535 21.3281 34.8441 21.3281C34.8441 20.7422 34.8441 20.1953 34.8441 19.6354C31.9404 19.6354 29.0628 19.6354 26.1462 19.6354Z" fill="#14191D"/>
<path id="Vector_2" d="M24.8047 0C25.5078 0.234375 26.0156 0.729167 26.5104 1.25C28.2812 3.16406 30.0521 5.0651 31.8359 6.95312C32.3047 7.44792 32.5521 8.02083 32.5391 8.71094C32.526 9.89583 32.5391 11.0807 32.5391 12.2786C32.5391 12.8906 32.2396 13.2552 31.7578 13.2422C31.276 13.2292 30.9766 12.8646 30.9766 12.2526C30.9766 11.276 30.9766 10.3125 30.9766 9.28385C30.5078 9.28385 30.0911 9.28385 29.6615 9.28385C28.6589 9.28385 27.6432 9.29687 26.6406 9.27083C25.013 9.24479 23.75 7.94271 23.724 6.32812C23.7109 4.76562 23.724 3.20312 23.724 1.5625C23.5286 1.5625 23.3594 1.5625 23.1901 1.5625C16.3411 1.5625 9.49219 1.5625 2.64323 1.5625C1.8099 1.5625 1.5625 1.8099 1.5625 2.63021C1.5625 15.5208 1.5625 28.4115 1.5625 41.2891C1.5625 42.1224 1.8099 42.3698 2.63021 42.3698C4.59635 42.3698 6.5625 42.3698 8.54167 42.3698C9.07552 42.3698 9.40104 42.6953 9.38802 43.1641C9.375 43.6198 9.0625 43.9062 8.55469 43.9323C8.4375 43.9323 8.33333 43.9323 8.21615 43.9323C6.47135 43.9323 4.72656 43.8802 2.99479 43.9453C1.52344 44.0104 0.507812 43.4896 0 42.0833C0 28.6719 0 15.2604 0 1.84896C0.3125 0.9375 0.924479 0.3125 1.84896 0C9.50521 0 17.1484 0 24.8047 0ZM25.2865 2.78646C25.2865 4.02344 25.2734 5.11719 25.2865 6.19792C25.2995 7.13542 25.8724 7.72135 26.8099 7.73438C27.6823 7.7474 28.5677 7.73438 29.4401 7.73438C29.5443 7.73438 29.6354 7.70833 29.8047 7.68229C28.2943 6.05469 26.8359 4.46615 25.2865 2.78646Z" fill="#14191D"/>
<path id="Vector_3" d="M38.4763 0C38.6456 0.325521 38.88 0.638021 38.9841 0.989583C39.1794 1.65365 39.3096 2.34375 39.4268 3.03385C39.4789 3.32031 39.6091 3.42448 39.8695 3.51562C40.4034 3.71094 40.9372 3.91927 41.4451 4.16667C41.7185 4.29688 41.9138 4.28385 42.1482 4.11458C42.7732 3.6849 43.4242 3.26823 44.0622 2.85156C44.531 2.55208 44.8435 2.5651 45.2471 2.96875C45.8461 3.55469 46.4451 4.16667 47.044 4.76562C47.3826 5.10417 47.3956 5.48177 47.1482 5.8724C46.7185 6.52344 46.3149 7.1875 45.8591 7.82552C45.6899 8.07292 45.6768 8.25521 45.807 8.52865C46.0675 9.04948 46.2367 9.60938 46.4971 10.1432C46.5753 10.2995 46.7445 10.4818 46.9138 10.5208C47.6039 10.7031 48.3201 10.8073 48.9971 11.0026C49.3487 11.1068 49.6612 11.3411 49.9997 11.5104C49.9997 12.6172 49.9997 13.724 49.9997 14.8307C49.7003 15.013 49.4138 15.2734 49.0753 15.3646C48.3852 15.5599 47.682 15.6771 46.9789 15.8073C46.6925 15.8594 46.5622 16.0026 46.4581 16.276C46.1586 17.0312 45.8201 17.7734 45.4425 18.4896C45.182 18.9974 44.7003 19.1146 44.3096 18.8672C43.919 18.6198 43.88 18.2161 44.1013 17.7083C44.4789 16.888 44.8305 16.0547 45.143 15.1953C45.2992 14.7656 45.5206 14.5182 45.9763 14.4271C46.7836 14.2708 47.5909 14.0885 48.3852 13.9323C48.5675 12.5 48.5675 12.5 47.2263 12.2135C46.7836 12.1224 46.3409 12.0182 45.8982 11.9271C45.4945 11.849 45.2992 11.6146 45.169 11.237C44.8435 10.3776 44.4919 9.51823 44.1143 8.6849C43.932 8.30729 43.906 7.99479 44.1534 7.64323C44.6221 6.9401 45.0779 6.23698 45.5596 5.49479C45.2081 5.16927 44.8695 4.85677 44.4789 4.49219C43.8539 4.89583 43.1638 5.32552 42.4997 5.78125C42.057 6.09375 41.6794 6.06771 41.1977 5.82031C40.4685 5.44271 39.7003 5.13021 38.919 4.88281C38.4242 4.72656 38.1508 4.47917 38.0596 3.95833C37.9164 3.16406 37.7341 2.36979 37.5649 1.57552C37.057 1.57552 36.5883 1.57552 36.0935 1.57552C35.9242 2.39583 35.755 3.20312 35.5857 4.01042C35.4555 4.60937 35.1169 4.88281 34.6221 4.79167C34.1534 4.70052 33.932 4.28385 34.0623 3.6849C34.2576 2.76042 34.4138 1.83594 34.6612 0.924479C34.7524 0.598958 35.0128 0.3125 35.2081 0C36.2628 0 37.3695 0 38.4763 0Z" fill="#14191D"/>
<path id="Vector_4" d="M43.3076 13.2292C43.0993 14.0365 42.93 14.8568 42.6826 15.6641C42.5003 16.237 42.0446 16.4453 41.6019 16.25C41.1722 16.0677 41.042 15.638 41.2503 15.0911C42.3962 12.0833 40.7165 8.9974 37.6175 8.42448C37.3571 8.3724 37.0967 8.38542 36.8363 8.35937C36.2894 8.29427 36.0029 7.98177 36.029 7.51302C36.055 7.07031 36.3805 6.8099 36.9014 6.8099C40.3128 6.77083 43.1774 9.70052 43.1774 13.2031C43.2165 13.2161 43.2555 13.2292 43.3076 13.2292Z" fill="#14191D"/>
<path id="Vector_5" d="M14.44 10.5339C16.1978 10.5339 17.9557 10.5339 19.7004 10.5339C20.3124 10.5339 20.677 10.8333 20.664 11.3151C20.651 11.7839 20.2864 12.0833 19.6744 12.0964C16.1848 12.0964 12.6822 12.0964 9.19263 12.0964C8.42441 12.0964 7.95566 11.4974 8.32024 10.9635C8.47649 10.7422 8.84107 10.5599 9.11451 10.5599C10.8984 10.5208 12.6692 10.5339 14.44 10.5339Z" fill="#14191D"/>
<path id="Vector_6" d="M14.4528 8.54166C12.7601 8.54166 11.0674 8.54166 9.38767 8.54166C9.19235 8.54166 8.99704 8.54166 8.80173 8.5026C8.42413 8.41145 8.17673 8.11197 8.24183 7.76041C8.29392 7.48697 8.55433 7.23958 8.78871 7.04426C8.9059 6.9401 9.16631 6.97916 9.36163 6.97916C12.7601 6.97916 16.1585 6.97916 19.5439 6.97916C20.2991 6.97916 20.6767 7.23958 20.6767 7.74739C20.6898 8.26822 20.2991 8.54166 19.5179 8.54166C17.8252 8.54166 16.1325 8.54166 14.4528 8.54166Z" fill="#14191D"/>
<path id="Vector_7" d="M11.862 14.0625C12.7734 14.0625 13.6849 14.0625 14.5964 14.0625C15.1823 14.0625 15.5208 14.349 15.5339 14.8307C15.5469 15.3385 15.1953 15.625 14.5833 15.625C12.7734 15.625 10.9766 15.625 9.16667 15.625C8.59375 15.625 8.22917 15.3255 8.21615 14.8698C8.20313 14.388 8.58073 14.0755 9.17969 14.0755C10.0781 14.0625 10.9635 14.0625 11.862 14.0625Z" fill="#14191D"/>
<path id="Vector_8" d="M4.98683 15.7422C4.64829 15.5859 4.32277 15.5078 4.10142 15.3125C3.78892 15.0391 3.86704 14.5443 4.16652 14.2708C4.49204 13.9714 5.42954 13.9583 5.7811 14.2578C6.0936 14.5182 6.18475 15.026 5.88527 15.2995C5.66392 15.5078 5.31235 15.5859 4.98683 15.7422Z" fill="#14191D"/>
<path id="Vector_9" d="M4.97421 12.0833C4.5315 12.1094 4.1539 12.0182 3.97161 11.5625C3.82838 11.2109 3.94556 10.9245 4.219 10.6901C4.50546 10.4557 5.469 10.4557 5.75546 10.6901C6.05494 10.9375 6.14609 11.25 5.98984 11.6016C5.79452 12.0573 5.4039 12.1094 4.97421 12.0833Z" fill="#14191D"/>
<path id="Vector_10" d="M5.01316 8.64585C4.67461 8.4896 4.33607 8.4245 4.11472 8.22918C3.80222 7.95575 3.86732 7.47397 4.1668 7.18752C4.4793 6.88804 5.44284 6.87502 5.78139 7.14845C6.09389 7.40887 6.19805 7.91668 5.89857 8.19012C5.67722 8.41147 5.32566 8.4896 5.01316 8.64585Z" fill="#14191D"/>
<path id="Vector_11" d="M30.4814 37.5261C30.0518 37.5261 29.7002 37.1745 29.7002 36.7578C29.7002 36.3412 30.0518 35.9896 30.4814 35.9896C30.9111 35.9896 31.2497 36.3281 31.2497 36.7578C31.2627 37.2005 30.9242 37.5391 30.4814 37.5261Z" fill="#14191D"/>
</g>
<defs>
<clipPath id="clip0_686_10362">
<rect width="50" height="50" fill="white"/>
</clipPath>
</defs>
</svg>
