<svg width="50" height="50" viewBox="0 0 50 50" fill="none" xmlns="http://www.w3.org/2000/svg">
<g clip-path="url(#clip0_686_10338)">
<path d="M33.7803 50C27.9224 50 22.0646 50 16.2067 50C14.5795 49.3361 14.163 48.7243 14.163 46.9409C14.163 42.7493 14.163 38.5446 14.163 34.353C14.163 32.7128 15.2174 31.6714 16.8446 31.6714C17.938 31.6714 19.0185 31.6714 20.1119 31.6714C20.2682 31.6714 20.4764 31.6714 20.5676 31.5803C21.4788 30.6951 22.377 29.7839 23.2491 28.8987C22.7935 28.5342 22.377 28.1697 21.9344 27.8443C21.7261 27.7011 21.4658 27.5449 21.2314 27.5449C19.0185 27.5189 16.8055 27.5319 14.5925 27.5319C14.2801 27.5319 14.0588 27.61 13.8375 27.8573C12.2364 29.6407 9.39858 29.6277 7.75839 27.8703C7.60218 27.7011 7.30278 27.5579 7.06846 27.5579C5.58447 27.5319 4.1135 27.5579 2.62951 27.5449C1.31475 27.5319 0.481635 26.9071 0.0520596 25.6444C0.0390422 25.6053 -1.01663e-05 25.5663 -0.0260451 25.5272C-0.0260451 25.2018 -0.0260451 24.8763 -0.0260451 24.5509C0.468618 23.0279 1.54907 22.4551 3.11116 22.5202C4.43894 22.5722 5.77973 22.5332 7.10751 22.5332C7.25071 22.5332 7.43295 22.5462 7.52407 22.4681C8.04477 22.0385 8.52642 21.5829 9.06013 21.1143C8.25305 20.3202 7.43295 19.4741 6.58682 18.68C6.40457 18.5108 6.11819 18.3936 5.87086 18.3936C4.76437 18.3676 3.65789 18.3936 2.55141 18.3806C1.51001 18.3676 0.715949 17.912 0.221286 16.9747C0.117147 16.7795 0.0520596 16.5582 -0.0390625 16.3499C-0.0390625 11.5985 -0.0390625 6.84718 -0.0390625 2.09581C0.299391 0.989326 0.989316 0.299401 2.05675 0C7.9146 0 13.7724 0 19.6303 0C21.2575 0.66389 21.674 1.28873 21.674 3.07212C21.674 7.25072 21.674 11.4293 21.674 15.6209C21.674 17.2872 20.6326 18.3416 18.9664 18.3416C17.8729 18.3416 16.7925 18.3416 15.699 18.3546C15.5168 18.3546 15.2955 18.4067 15.1783 18.5238C14.2801 19.383 13.421 20.2551 12.5618 21.1013C13.0435 21.4918 13.473 21.8823 13.9417 22.2338C14.1109 22.364 14.3192 22.4941 14.5144 22.4941C16.7925 22.5072 19.0705 22.5072 21.3486 22.4941C21.5439 22.4941 21.7912 22.377 21.9214 22.2338C23.6136 20.3853 26.4124 20.3853 28.1047 22.2338C28.2348 22.364 28.4561 22.4941 28.6253 22.4941C30.9294 22.5072 33.2465 22.5072 35.5506 22.4941C35.6808 22.4941 35.85 22.4551 35.9542 22.377C36.4488 21.9734 36.9305 21.5439 37.4772 21.0622C37.3861 20.9971 37.2429 20.906 37.1257 20.7889C36.3577 20.0338 35.6157 19.2658 34.8347 18.5238C34.7175 18.4067 34.4832 18.3546 34.314 18.3546C33.2465 18.3416 32.1661 18.3546 31.0987 18.3416C29.3673 18.3416 28.352 17.3002 28.352 15.5689C28.352 11.3122 28.352 7.04244 28.352 2.78573C28.352 2.56444 28.352 2.33012 28.391 2.10883C28.5863 0.976308 29.3413 0.351471 30.3827 0.0130174C36.2406 0.0130174 42.0984 0.0130174 47.9563 0.0130174C49.0237 0.312419 49.7006 1.00234 50.013 2.06977C50.013 6.82114 50.013 11.5725 50.013 16.3239C49.3101 17.9641 48.7243 18.3546 46.8888 18.3546C45.9516 18.3546 45.0013 18.3546 44.064 18.3546C43.9078 18.3546 43.6996 18.3546 43.6084 18.4457C42.6972 19.3309 41.799 20.2421 40.9268 21.1273C41.3955 21.5048 41.812 21.8823 42.2676 22.2208C42.4499 22.3509 42.6712 22.4811 42.8794 22.4941C44.3765 22.5202 45.8735 22.5072 47.3574 22.5072C48.4249 22.5072 49.232 22.9498 49.7396 23.913C49.8438 24.1083 49.9219 24.3166 50.013 24.5249C50.013 24.8503 50.013 25.1757 50.013 25.5012C49.5183 27.0242 48.4249 27.597 46.8758 27.5319C45.548 27.4798 44.2072 27.5059 42.8794 27.5319C42.6842 27.5319 42.4238 27.623 42.2937 27.7662C40.5623 29.6407 37.8157 29.6537 36.0843 27.7792C35.9542 27.649 35.7329 27.5319 35.5506 27.5319C33.2596 27.5189 30.9685 27.5189 28.6774 27.5189C28.5342 27.5189 28.365 27.5319 28.2739 27.61C27.7662 28.0266 27.2846 28.4691 26.7769 28.9117C27.5709 29.7058 28.4041 30.5389 29.2372 31.359C29.2892 31.4111 29.3153 31.4762 29.3804 31.4892C29.5496 31.5543 29.7318 31.6454 29.9141 31.6454C30.9815 31.6584 32.062 31.6454 33.1294 31.6584C34.8347 31.6584 35.863 32.6998 35.863 34.3921C35.863 38.6878 35.863 42.9836 35.863 47.2663C35.863 47.4876 35.85 47.7219 35.811 47.9432C35.5636 49.0627 34.8086 49.6615 33.7803 50ZM39.1434 20.4764C39.2997 20.3332 39.4168 20.2161 39.534 20.1119C40.5363 19.1096 41.5387 18.1203 42.528 17.1049C42.8274 16.8055 43.1398 16.6623 43.5564 16.6753C44.754 16.6884 45.9646 16.6884 47.1622 16.6753C48.0344 16.6753 48.3077 16.402 48.3077 15.5428C48.3077 11.2861 48.3077 7.0164 48.3077 2.7597C48.3077 1.95262 48.0213 1.66623 47.2273 1.66623C41.825 1.66623 36.4228 1.66623 31.0336 1.66623C30.2655 1.66623 29.9661 1.96563 29.9661 2.73366C29.9661 7.02942 29.9661 11.3252 29.9661 15.6209C29.9661 16.3759 30.2655 16.6753 31.0466 16.6753C32.2702 16.6753 33.4809 16.6884 34.7045 16.6753C35.1471 16.6623 35.4725 16.8055 35.7849 17.1179C36.8914 18.2244 37.9979 19.3309 39.1434 20.4764ZM10.8305 20.4895C11.9891 19.3309 13.0955 18.2374 14.176 17.131C14.5014 16.8055 14.8399 16.6623 15.2955 16.6753C16.4931 16.7014 17.7037 16.6884 18.9013 16.6753C19.6954 16.6753 19.9948 16.3759 19.9948 15.5819C19.9948 11.2991 19.9948 7.02942 19.9948 2.74668C19.9948 1.95262 19.7084 1.66623 18.9013 1.66623C13.5121 1.66623 8.13589 1.66623 2.74667 1.66623C1.93959 1.66623 1.65321 1.95262 1.65321 2.74668C1.65321 7.02942 1.65321 11.2991 1.65321 15.5819C1.65321 16.389 1.93959 16.6753 2.73365 16.6753C3.91824 16.6753 5.10283 16.7014 6.30043 16.6623C6.82113 16.6493 7.18562 16.8185 7.55011 17.183C8.61754 18.2895 9.69799 19.3569 10.8305 20.4895ZM25.0065 29.4975C23.874 30.63 22.7935 31.6845 21.7521 32.7649C21.3616 33.1815 20.9451 33.3377 20.3723 33.3247C19.2137 33.2856 18.0682 33.3116 16.9096 33.3116C16.1156 33.3116 15.8292 33.611 15.8292 34.4051C15.8292 38.6878 15.8292 42.9576 15.8292 47.2403C15.8292 48.0344 16.1156 48.3208 16.9227 48.3208C22.3119 48.3208 27.6881 48.3208 33.0773 48.3208C33.8844 48.3208 34.1708 48.0344 34.1708 47.2403C34.1708 42.9576 34.1708 38.6878 34.1708 34.4051C34.1708 33.611 33.8844 33.3116 33.0773 33.3116C31.8927 33.3116 30.7081 33.2986 29.5105 33.3247C29.0159 33.3377 28.6514 33.1815 28.2999 32.83C27.2325 31.7235 26.139 30.6431 25.0065 29.4975ZM25.0325 27.4928C26.3864 27.4668 27.5189 26.3213 27.4928 24.9805C27.4668 23.5876 26.3343 22.4681 24.9544 22.4941C23.5876 22.5202 22.4811 23.6527 22.4941 25.0065C22.5202 26.3994 23.6527 27.5189 25.0325 27.4928ZM36.6701 24.9935C36.6571 26.3603 37.7506 27.4798 39.1304 27.4928C40.5103 27.5189 41.6428 26.3994 41.6688 25.0065C41.6818 23.6657 40.5493 22.5072 39.2085 22.4941C37.8157 22.4811 36.6831 23.6006 36.6701 24.9935ZM13.3299 25.0325C13.3429 23.6397 12.2364 22.5072 10.8435 22.5072C9.47669 22.5072 8.35719 23.6006 8.33115 24.9675C8.30512 26.3343 9.42462 27.4798 10.8175 27.5059C12.1713 27.5189 13.3168 26.3864 13.3299 25.0325ZM35.0169 24.1994C33.0383 24.1994 31.0856 24.1994 29.133 24.1994C29.133 24.7462 29.133 25.2669 29.133 25.8136C31.0856 25.8136 33.0513 25.8136 35.0169 25.8136C35.0169 25.2669 35.0169 24.7592 35.0169 24.1994ZM14.9701 25.8006C16.9487 25.8006 18.9143 25.8006 20.8539 25.8006C20.8539 25.2538 20.8539 24.7331 20.8539 24.1864C18.8883 24.1864 16.9357 24.1864 14.9701 24.1864C14.9701 24.7331 14.9701 25.2408 14.9701 25.8006ZM6.69096 24.1734C5.27206 24.1734 3.86617 24.1604 2.44727 24.1864C1.96562 24.1994 1.65321 24.5769 1.66622 25.0065C1.66622 25.4361 1.99166 25.7876 2.4733 25.8136C2.87684 25.8396 3.28039 25.8266 3.68393 25.8266C4.68627 25.8266 5.68861 25.8266 6.67794 25.8266C6.69096 25.2669 6.69096 24.7592 6.69096 24.1734ZM43.296 25.8266C44.6368 25.8266 45.9776 25.8266 47.3184 25.8266C47.9432 25.8266 48.3077 25.5012 48.3207 25.0065C48.3338 24.4988 47.9432 24.1604 47.2924 24.1604C46.0557 24.1474 44.8321 24.1604 43.5954 24.1604C43.4913 24.1604 43.3871 24.1864 43.296 24.1994C43.296 24.7462 43.296 25.2669 43.296 25.8266Z" fill="#14191D"/>
<path d="M39.1566 7.51067C37.2821 7.51067 35.4206 7.52369 33.5461 7.49766C33.2597 7.49766 32.8822 7.36748 32.687 7.1592C32.2444 6.71661 32.5568 5.9616 33.1816 5.85746C33.3378 5.83142 33.5071 5.84444 33.6633 5.84444C37.3212 5.84444 40.9791 5.84444 44.637 5.84444C44.7802 5.84444 44.9364 5.83142 45.0796 5.85746C45.5092 5.90953 45.7565 6.15686 45.7955 6.58643C45.8346 7.01601 45.6393 7.31541 45.2358 7.44559C45.0535 7.49766 44.8583 7.51067 44.663 7.51067C42.8276 7.51067 40.9921 7.51067 39.1566 7.51067Z" fill="#14191D"/>
<path d="M37.0734 12.4972C35.8888 12.4972 34.7042 12.4972 33.5066 12.4972C32.8687 12.4972 32.5173 12.1978 32.5042 11.6901C32.4912 11.1564 32.8557 10.844 33.5196 10.844C35.8888 10.844 38.271 10.844 40.6401 10.844C41.265 10.844 41.6425 11.1564 41.6555 11.6511C41.6685 12.1718 41.278 12.4972 40.6271 12.5102C39.4556 12.4972 38.258 12.4972 37.0734 12.4972Z" fill="#14191D"/>
<path d="M10.8964 5.84546C12.7449 5.84546 14.6064 5.84546 16.4548 5.84546C17.1317 5.84546 17.4832 6.13184 17.4962 6.66556C17.4962 7.18626 17.1187 7.51169 16.4678 7.51169C12.7188 7.51169 8.95678 7.51169 5.20776 7.51169C4.55689 7.51169 4.1924 7.18626 4.20542 6.65254C4.21843 6.13184 4.55689 5.85848 5.20776 5.84546C7.09529 5.84546 8.99583 5.84546 10.8964 5.84546Z" fill="#14191D"/>
<path d="M8.78722 10.8301C9.95879 10.8301 11.1304 10.8301 12.3019 10.8301C12.9528 10.8301 13.3303 11.1555 13.3173 11.6762C13.3043 12.1839 12.9398 12.4963 12.3149 12.4963C9.94578 12.4963 7.56358 12.4963 5.19441 12.4963C4.53052 12.4963 4.16603 12.1839 4.17905 11.6502C4.19207 11.1295 4.53052 10.8431 5.18139 10.8431C6.379 10.8301 7.58962 10.8301 8.78722 10.8301Z" fill="#14191D"/>
<path d="M25.006 39.156C23.1055 39.156 21.2049 39.156 19.3044 39.156C18.6405 39.156 18.2369 38.7264 18.3671 38.1537C18.4712 37.6851 18.8097 37.5028 19.2653 37.5028C20.515 37.5028 21.7647 37.5028 23.0143 37.5028C25.5527 37.5028 28.0911 37.5028 30.6165 37.5028C31.0851 37.5028 31.4627 37.633 31.6058 38.1016C31.7881 38.6744 31.3585 39.156 30.6946 39.169C28.8071 39.156 26.9066 39.156 25.006 39.156Z" fill="#14191D"/>
<path d="M22.8969 44.1551C21.7123 44.1551 20.5278 44.1551 19.3301 44.1551C18.6793 44.1551 18.3408 43.8687 18.3408 43.335C18.3408 42.8143 18.6923 42.4889 19.3171 42.4889C21.7123 42.4889 24.0945 42.4889 26.4897 42.4889C27.1016 42.4889 27.4921 42.8143 27.4921 43.322C27.5051 43.8297 27.1276 44.1551 26.5028 44.1551C25.3052 44.1551 24.1075 44.1551 22.8969 44.1551Z" fill="#14191D"/>
</g>
<defs>
<clipPath id="clip0_686_10338">
<rect width="50" height="50" fill="white"/>
</clipPath>
</defs>
</svg>
