<svg width="146" height="117" viewBox="0 0 146 117" fill="none" xmlns="http://www.w3.org/2000/svg">
<g id="g10">
<g id="g12">
<path id="path14" d="M65.1317 2.22325H49.3955H33.6592V17.6683V33.1133V48.5584V64.0032V79.4482H49.3955H65.1317H80.8682V64.0032V48.5584H65.1317V64.0032H49.3955V48.5584V33.1133V17.6683H65.1317V33.1133H80.8682V17.6683V2.22325H65.1317Z" fill="#B2B2B2"/>
</g>
<g id="g16">
<path id="path18" d="M96.6046 17.6723V33.1133H80.8682V48.5584H96.6046V64.0034H112.341V48.5584V33.1173V33.1133V17.6723H96.6046Z" fill="#B2B2B2"/>
</g>
<g id="g20">
<g id="Clip path group">
<mask id="mask0_1285_9681" style="mask-type:luminance" maskUnits="userSpaceOnUse" x="33" y="2" width="48" height="78">
<g id="clipPath26">
<path id="path24" d="M65.1319 2.22305H49.3957H33.6592V17.6681V33.1133V48.5582V64.0032V79.4482H49.3957H65.1319H80.8682V64.0032V48.5582H65.1319V64.0032H49.3957V48.5582V33.1133V17.6681H65.1319V33.1133H80.8682V17.6681V2.22305H65.1319Z" fill="white"/>
</g>
</mask>
<g mask="url(#mask0_1285_9681)">
<g id="g22">
<g id="g28">
<path id="path30" d="M87.6414 72.9176L87.2 72.3101V69.5063M88.7765 77.4809L87.2 76.9683V72.6291L87.7161 73.3397M87.0122 69.3702V72.0521L85.4357 69.8823L82.8846 70.7111L84.4614 68.5413L82.8846 66.3718L85.4357 67.2005L87.0122 65.0307L87.0124 67.7126M87.0122 76.9074L82.6971 75.5057L81.0488 73.2374L82.6971 70.9691L85.3641 70.1027L87.0122 72.371V76.9074ZM87.0122 78.7625L85.5606 79.2339L85.4357 79.2745L84.062 77.3842L82.8846 75.764L87.0122 77.1048V78.7625ZM83.2488 79.985L80.9328 80.7372L78.266 79.871V77.0671L79.9141 74.7988L82.5811 75.6654L83.4039 76.7974L85.2479 79.3354L83.2488 79.985ZM78.0785 77.0062L77.9303 77.2101L75.4113 80.6763L72.7444 77.0062V74.2026L75.4113 73.336L78.0785 74.2026V77.0062ZM72.5571 74.0661V76.7482L70.9802 74.5784L68.4291 75.4072L70.0058 73.2374L68.4291 71.0677L70.9802 71.8964L72.5571 69.7268V72.4087L75.108 73.2374L72.5571 74.0661ZM72.5569 79.871L70.895 80.4109L69.8899 80.7372L65.5746 79.3354L67.7702 76.3139L68.2416 75.6654L70.9086 74.7988L72.5569 77.0671V79.871ZM65.3872 79.2745L63.8105 78.7625V77.1048L67.9381 75.764L66.0231 78.3992L65.3872 79.2745ZM63.623 72.3101L63.1815 72.9176L60.9559 75.9804L58.7306 72.9176L58.2889 72.3101V69.5063L60.9559 68.6401L61.2316 68.7294L63.623 69.5063V72.3101ZM63.623 76.9686L62.0462 77.4809L61.0719 76.1396L62.1955 74.5935L63.623 72.6291V76.9686ZM59.8657 77.4809L58.2889 76.9686V72.6291L58.8053 73.3397L60.84 76.1396L59.8657 77.4809ZM58.1014 69.37V72.0521L56.5247 69.8823L53.9736 70.7111L55.5503 68.5413L53.9736 66.3718L56.5247 67.2005L58.1014 65.0307V67.7126L60.6524 68.5413L58.1014 69.37ZM58.1014 76.9074L53.7861 75.5057L52.138 73.2374L53.7861 70.9691L56.4531 70.1027L58.1014 72.371V76.9074ZM58.1014 78.7625L56.5247 79.2745L55.151 77.3842L53.9736 75.764L58.1014 77.1048V78.7625ZM54.3378 79.985L52.022 80.7372L49.355 79.871V77.0671L51.0033 74.7988L53.6703 75.6654L54.4929 76.7974L56.3371 79.3354L54.3378 79.985ZM49.1674 77.0062L49.0195 77.2101L46.5004 80.6763L43.8336 77.0062V74.2026L46.5004 73.336L49.1674 74.2026V77.0062ZM43.6461 74.0661H43.6459V76.7482L42.0694 74.5784L39.5181 75.4072L41.0948 73.2374L39.5183 71.0677L42.0694 71.8964L43.6459 69.7268V72.4087L46.1971 73.2374L45.7339 73.3879L43.6461 74.0661ZM43.6459 79.871L40.9789 80.7372L38.6631 79.985L36.6637 79.3354L38.508 76.7974L39.3305 75.6654L41.9978 74.7988L43.6459 77.0671V79.871ZM36.4762 79.2745L34.8997 78.7625V77.1048L39.0273 75.764L38.2191 76.8761L36.4762 79.2745ZM32.3486 68.5413L34.8997 67.7126V65.0305L36.4762 67.2005L39.0273 66.3718L38.5017 67.095L37.4505 68.5413L38.4983 69.9832L39.0273 70.7111L36.4762 69.8823L34.8997 72.0521V69.37L32.3486 68.5413ZM34.1956 63.7431L32.1609 60.943L34.2739 58.0353L34.7121 57.4324V60.1141L37.2632 60.943L34.7121 61.7717V64.4538L34.1956 63.7431ZM32.3486 53.3447L32.8263 53.1892L34.8997 52.516V49.8339L36.4643 51.9871L36.4762 52.0034L38.2034 51.4426C38.4425 51.3649 38.7154 51.2762 39.0273 51.1749L37.4507 53.3447L39.0273 55.5142L36.4762 54.6855L35.1364 56.5292L34.8997 56.8552V54.1734L32.3486 53.3447ZM32.1609 45.7462L33.1354 44.4051L34.7121 44.9174V49.2567L32.1609 45.7462ZM34.8997 44.9783L39.2148 46.38L39.2887 46.482L40.8631 48.6484L39.3825 50.6861L39.2148 50.9167C38.9913 50.9893 37.507 51.4715 36.8249 51.6931L36.7313 51.7236C36.6928 51.736 36.6581 51.7473 36.6279 51.7571L36.5478 51.7833L34.8997 49.515V44.9783ZM34.8997 43.1237L36.4762 42.6114L37.5165 44.0429L39.0273 46.122L34.8997 44.7812V43.1237ZM35.5735 41.05L36.5478 39.709L38.4623 40.331L40.6756 41.05L38.4623 41.7691L36.5478 42.3911L35.5735 41.05ZM34.8997 38.9763V37.3191L36.1493 36.9129L39.0273 35.9779L36.4762 39.4887L34.8997 38.9763ZM32.3484 28.7556L34.8997 27.9269V25.2448L36.4762 27.4146L39.0273 26.5859L37.4505 28.7556L38.2491 29.8545L39.0273 30.9254L36.4762 30.0966L34.8997 32.2662V29.5844L32.3484 28.7556ZM32.1609 21.1573L33.795 18.9087L34.7121 17.6465V20.3284L37.2632 21.1573L34.7121 21.9858V24.6679L32.1609 21.1573ZM32.3486 13.5588L34.8997 12.7301V10.0482L36.4762 12.2178L39.0273 11.389L37.4507 13.5588L39.0273 15.7285L36.4762 14.8998L34.8997 17.0694V14.3875L32.3486 13.5588ZM32.1609 5.96027L33.1354 4.61945L34.7121 5.13153V9.47104L32.1609 5.96027ZM34.8997 5.19244L39.2148 6.59436L40.8631 8.86268L39.2148 11.131L36.5478 11.9974L34.8997 9.72908V5.19244ZM34.8997 3.33785L36.4762 2.82555L37.5165 4.25739L39.0273 6.33633L34.8997 4.99529V3.33785ZM37.6517 2.44383L40.9789 1.36293L43.6459 2.22932V5.03297L41.9978 7.30128C41.6093 7.17509 39.5941 6.52048 39.3305 6.43489L36.6637 2.76465L37.6517 2.44383ZM43.8334 5.09408L46.5004 1.42384L49.1674 5.09408V7.89772L46.5004 8.76411L43.8334 7.89772V5.09408ZM49.355 8.03396V5.35211L50.9315 7.52165L51.9186 7.20104L53.4828 6.69292L51.906 8.86268L53.4828 11.0324L50.9315 10.2037L49.355 12.3732V9.6914L46.8039 8.86268L49.355 8.03396ZM49.355 2.22932L52.022 1.36293L54.3378 2.11506L56.3371 2.76465L53.6703 6.43489C53.4068 6.52048 51.3918 7.17509 51.0033 7.30128L49.355 5.03297V2.22932ZM56.5247 2.82555L58.1014 3.33785V4.99529L56.8851 5.39062L53.9736 6.33633L56.5247 2.82555ZM58.2889 9.78997L60.9559 6.11994L63.623 9.78997V12.5938L60.9559 13.4602L59.9801 13.1432L58.2889 12.5938V9.78997ZM58.2889 5.13153L59.8657 4.61945L60.84 5.96027L59.2735 8.1162L58.2889 9.47104V5.13153ZM62.0462 4.61945L63.623 5.13153V9.47104L61.0719 5.96027L62.0462 4.61945ZM63.8105 12.7301V10.0482L65.3872 12.2178L67.9381 11.389L66.3616 13.5588L67.9381 15.7285L65.3872 14.8998L63.8105 17.0694V14.3875L61.2594 13.5588L63.8105 12.7301ZM63.8105 5.19244L68.1258 6.59436L69.7741 8.86268L68.1258 11.131L65.4588 11.9974L63.8105 9.72908V5.19244ZM63.8105 3.33785L65.3872 2.82555L66.4279 4.25803L67.9381 6.33633L63.8105 4.99529V3.33785ZM67.5741 2.11506L69.8899 1.36293L72.5571 2.22932V5.03297L72.5569 5.03317L70.9086 7.30128C70.5201 7.17509 68.5049 6.52048 68.2416 6.43489L65.5746 2.76465L67.5741 2.11506ZM72.7444 5.09408L75.4113 1.42384L78.0785 5.09408V7.89772L75.4113 8.76411L72.7444 7.89772V5.09408ZM78.266 8.03396V5.35211L79.8425 7.52165L80.3375 7.36093C80.338 7.36073 80.3382 7.36072 80.3386 7.36051L82.3938 6.69292L80.8171 8.86268L82.3936 11.0324L79.8425 10.2037L78.266 12.3732V9.6914L75.715 8.86268L78.266 8.03396ZM78.266 2.22932L80.9328 1.36293L83.1865 2.09497L85.2481 2.76465L82.5811 6.43489C82.3174 6.52048 80.3026 7.17509 79.9143 7.30128L78.266 5.03297V2.22932ZM85.4357 2.82555L87.0124 3.33785V4.99529L85.7961 5.39062L82.8844 6.33633L85.4357 2.82555ZM87.2 12.5938V9.78997V12.5938ZM88.1845 8.1162L87.2 9.47104V5.13153L88.7765 4.61945M87.2 67.5766V64.7725L87.3521 64.563M87.2 64.4536V61.7717L84.6489 60.943L87.2 60.1141V57.4322L87.7762 58.2252M81.2581 64.133L80.0303 62.4433L82.0918 61.7736L84.3454 61.0416L87.0124 61.908V64.7116L85.3641 66.9799L82.6971 66.1135L81.2581 64.133ZM79.9143 71.676L78.266 69.4079V64.8713L81.1222 65.799L82.5811 66.2732L84.2294 68.5413L82.5811 70.8096L79.9143 71.676ZM72.7444 69.4688L73.1859 68.8611L75.4115 65.7986L77.6368 68.8611L78.0785 69.4686V72.2725L75.4113 73.1388L72.7444 72.2725V69.4688ZM75.2957 65.6391L74.1717 67.1852L72.7444 69.1497V64.8104L74.321 64.2981L75.2957 65.6391ZM78.0785 64.8104V69.1497L77.5621 68.4392L75.5274 65.6391L76.5017 64.2981L78.0785 64.8104ZM71.0961 62.3449L72.1148 60.943L71.0961 59.5411L72.7444 59.0055V57.2727L74.3928 57.8083L75.4115 56.4066L76.4302 57.8083L78.0785 57.2727V59.0055L79.7268 59.5411L78.7079 60.943L79.7268 62.3449L78.0785 62.8802V64.613L76.4302 64.0777L75.4115 65.4794L74.3928 64.0777L72.7444 64.613V62.8802L71.0961 62.3449ZM68.4293 66.0152L69.7915 64.1403L70.9802 62.5044L72.5571 63.0165V64.6739L68.4293 66.0152ZM66.5933 68.5413L68.2416 66.2732L72.5571 64.8713V69.4079L70.9086 71.676L68.2416 70.8096L66.5933 68.5413ZM63.8105 72.371L63.9338 72.2011L65.4588 70.1029L67.8263 70.872L68.1258 70.9691L69.7741 73.2374L68.1258 75.5057L63.8105 76.9074V72.371ZM63.8105 67.7126V65.0305L64.1383 65.4817L65.3751 67.184L65.3872 67.2005L67.9381 66.3718L66.3616 68.5413L67.9381 70.7111L65.3872 69.8823L63.8105 72.0521V69.37L61.2594 68.5413L63.8105 67.7126ZM58.2889 64.7725L58.9554 63.8557L60.9559 61.1025L63.623 64.7725V67.5766L60.9559 68.4427L58.2889 67.5766V64.7725ZM55.7379 60.943L58.2889 60.1141V57.4324L60.84 60.943L59.7237 62.4793L58.2889 64.4536V61.7717L55.7379 60.943ZM52.3732 64.1689L51.1193 62.4433L53.181 61.7736L55.4344 61.0416L58.1014 61.908V64.7116L56.4531 66.9799L53.7861 66.1135L52.3732 64.1689ZM51.0033 71.676L49.355 69.4079V64.8713L53.6703 66.2732L55.3186 68.5413L53.6703 70.8096L51.0033 71.676ZM43.8336 69.4688L44.5516 68.4806L46.5004 65.7986L48.5919 68.6763L49.1674 69.4688V72.2725L46.5004 73.1388L45.7595 72.8982L43.8336 72.2725V69.4688ZM46.3845 65.6391L45.2728 67.1691L43.8336 69.1497V64.8104L45.4101 64.2981L46.3845 65.6391ZM49.1674 64.8104V69.1497L48.5378 68.2833L46.6164 65.6391L47.5909 64.2981L49.1674 64.8104ZM42.1853 62.3449L43.2038 60.943L42.1853 59.5411L43.8336 59.0055V57.2727L45.4819 57.8083L46.5004 56.4066L47.5191 57.8083L49.1674 57.2727V59.0055L50.8158 59.5411L49.7971 60.943L50.8158 62.3449L49.1674 62.8802V64.613L47.5191 64.0777L46.5004 65.4794L45.4819 64.0777L43.8336 64.613V62.8802L42.1853 62.3449ZM39.5183 66.0152L40.9041 64.1076L42.0694 62.5044L43.6461 63.0165V64.6739L39.5183 66.0152ZM39.8201 61.7736L41.8818 62.4433L40.654 64.133L39.2148 66.1135L36.5478 66.9799L34.8997 64.7116V61.908L37.5665 61.0416L39.8201 61.7736ZM41.8818 59.4425L39.8201 60.1124L37.5665 60.8444L34.8997 59.978V57.1742L36.548 54.9061L38.9967 55.7013L39.2148 55.7723L41.8818 59.4425ZM42.9721 60.943L41.9978 62.2838L40.0832 61.6621L37.87 60.943L40.0832 60.2239L41.9978 59.602L42.9721 60.943ZM41.0289 57.9497L39.5183 55.8708L43.6461 57.2118V58.8693L42.0694 59.3816L41.0289 57.9497ZM41.9978 50.2098L43.6461 52.4781V57.0147L39.3305 55.613L37.6825 53.3447L39.3305 51.0764L41.9978 50.2098ZM42.0694 47.3075L43.6461 45.1378V47.8196L46.1971 48.6484L43.6461 49.4771V52.1591L42.0694 49.9894L39.5181 50.8181L41.095 48.6484L40.011 47.1567L39.5181 46.4788L42.0694 47.3075ZM43.6459 42.015V44.8186L41.9978 47.087L39.3305 46.2208L36.6637 42.5505L38.7254 41.8807L40.9789 41.1486L43.6459 42.015ZM39.3305 35.8795L41.9978 35.0131L43.6459 37.2814V40.0851L40.9789 40.9515L38.7254 40.2194L36.6637 39.5498L39.3305 35.8795ZM40.8631 33.4517L39.2148 35.7201L34.8997 37.1218V32.5851L36.5478 30.317L39.2148 31.1834L40.8631 33.4517ZM39.3305 26.4873L43.6459 25.0854V29.622L41.9978 31.8903L39.3308 31.0237L38.7813 30.2678L37.6825 28.7556L39.3305 26.4873ZM39.8201 21.9877L41.8818 22.6576L39.2148 26.3278L36.5478 27.1942L34.8997 24.9259V22.1221L37.5665 21.2557L39.8201 21.9877ZM41.8818 19.6568L39.8201 20.3265L37.5665 21.0585L34.8997 20.1921V17.3885L36.5478 15.1202L39.2148 15.9866L41.8818 19.6568ZM41.9978 10.4241L43.6459 12.6924V17.229L39.3305 15.8271L37.6825 13.5588L39.3305 11.2905L41.9978 10.4241ZM49.1674 12.6315L46.5004 16.3015L43.8334 12.6315V9.82764L46.5004 8.96125L49.1674 9.82764V12.6315ZM46.6164 16.4612L48.2503 14.2126L49.1674 12.9504V17.2899L47.5907 17.802L46.6164 16.4612ZM43.8334 17.2899V12.9504L46.3845 16.4612L45.4101 17.802L43.8334 17.2899ZM50.8158 19.7552L49.7971 21.1573L50.8158 22.559L49.1674 23.0946V24.8273L47.5191 24.292L46.5004 25.6937L45.4819 24.292L43.8334 24.8273V23.0946L42.1853 22.559L43.2038 21.1573L42.1853 19.7552L43.8334 19.2199V17.4869L45.4819 18.0226L46.5004 16.6207L47.5191 18.0226L49.1674 17.4869V19.2199L50.8158 19.7552ZM50.6046 17.0202L53.4828 16.0851L50.9315 19.5959L49.355 19.0836V17.426L50.6046 17.0202ZM55.3186 13.5588L53.6703 15.8271L49.355 17.229V12.6924L51.0033 10.4241L53.6703 11.2905L55.3186 13.5588ZM58.1014 9.72908L56.4531 11.9974L53.7861 11.131L52.138 8.86268L53.7861 6.59436L58.1014 5.19244V9.72908ZM58.1014 14.3875V17.0694L56.5247 14.8998L53.9736 15.7285L55.5503 13.5588L53.9736 11.389L56.5247 12.2178L58.1014 10.0482V12.7301L60.6524 13.5588L58.1014 14.3875ZM63.623 17.3276L60.9559 20.9976L58.2889 17.3276V14.5237L60.9559 13.6574L63.623 14.5237V17.3276ZM66.174 21.1573L63.623 21.9858V24.6679L61.0719 21.1573L62.7058 18.9087L63.623 17.6465V20.3284L66.174 21.1573ZM70.7926 19.6568L68.7309 20.3265L66.4775 21.0585L63.8105 20.1921V17.3885L65.4588 15.1202L68.1258 15.9866L70.7926 19.6568ZM70.9086 10.4241L72.5571 12.6924V17.229L68.2416 15.8271L66.5933 13.5588L68.2416 11.2905L70.9086 10.4241ZM78.0785 12.6315L75.4113 16.3015L72.7444 12.6315V9.82764L75.4113 8.96125L75.9111 9.12365L78.0785 9.82764V12.6315ZM75.5274 16.4612L77.1613 14.2126L78.0785 12.9504V17.2899L76.5017 17.802L75.5274 16.4612ZM72.7444 17.2899V12.9504L75.2955 16.4612L74.321 17.802L72.7444 17.2899ZM79.7268 19.7552L78.7079 21.1573L79.7268 22.559L78.0785 23.0946V24.8273L76.4302 24.292L75.4113 25.6937L74.3928 24.292L72.7444 24.8273V23.0946L71.0961 22.559L72.1148 21.1573L71.0961 19.7552L72.7444 19.2199V17.4871L74.3928 18.0226L75.4113 16.6207L76.4302 18.0226L78.0785 17.4871V19.2199L79.7268 19.7552ZM82.3938 16.0851L80.7488 18.3486L79.8425 19.5959L78.266 19.0836V17.426L82.3938 16.0851ZM84.2294 13.5588L82.5811 15.8271L80.3277 16.5591L78.266 17.229V12.6924L79.9143 10.4241L82.5811 11.2905L84.2294 13.5588ZM87.0124 9.72908L85.3641 11.9974L82.6971 11.131L81.0488 8.86268L82.6971 6.59436L87.0124 5.19244V9.72908ZM87.0122 14.3875V17.0694L85.4357 14.8998L82.8846 15.7285L84.4614 13.5588L82.8846 11.389L85.4357 12.2178L87.0124 10.0482V12.7301M87.2 17.3276V14.5237V17.3276ZM87.2 57.1131V54.3094V57.1131ZM87.0124 54.1734V56.8552L85.4359 54.6855L82.8846 55.5142L84.4614 53.3447L82.8846 51.1749L85.4357 52.0034L87.0122 49.8339V52.516M82.0918 60.1124L80.0303 59.4425L82.6971 55.7723L83.1659 55.6201L85.3641 54.9061L87.0124 57.1742V59.978L84.3454 60.8444L82.0918 60.1124ZM78.266 57.2118L80.7038 56.42L82.3938 55.871L79.8425 59.3816L78.266 58.8693V57.2118ZM75.715 48.6484L78.266 47.8196V45.138L79.8425 47.3075L82.3938 46.4788L80.8171 48.6484L82.3936 50.8181L79.8425 49.9894L78.266 52.1591V49.4771L75.715 48.6484ZM72.7444 52.7361L75.2957 56.2469L74.321 57.5879L72.7444 57.0756V52.7361ZM70.9802 49.9894L68.4291 50.8181L70.0058 48.6484L68.4291 46.4788L70.9802 47.3075L70.9921 47.291H70.9923L72.5569 45.138V47.8196L75.108 48.6484L72.5571 49.4771V52.1591L70.9802 49.9894ZM68.2416 55.613L66.5933 53.3447L68.2416 51.0764L70.9086 50.2098L72.5571 52.4781V57.0147L68.2416 55.613ZM69.9393 57.9491L68.4293 55.8708L72.5571 57.2118V58.8693L70.9802 59.3816L69.9393 57.9491ZM68.994 61.6621L66.781 60.943L68.994 60.2239L70.9086 59.602L71.8831 60.943L70.9086 62.2838L68.994 61.6621ZM63.8105 61.908L66.4775 61.0416L68.7309 61.7736L70.7926 62.4433L69.5389 64.1689L68.1258 66.1135C68.0101 66.1512 67.5557 66.2987 67.0494 66.4632L65.7441 66.8874C65.6187 66.928 65.5189 66.9605 65.4588 66.9799L63.8105 64.7116V61.908ZM62.6177 58.8157L63.623 57.4324V60.1141L66.174 60.943L63.623 61.7717V64.4538L63.4204 64.1748L61.0719 60.943L62.6177 58.8157ZM58.2889 54.3094L60.9559 53.443L63.623 54.3094V57.1131L60.9559 60.7835L58.2889 57.1133V54.3094ZM56.5247 54.6855L53.9736 55.5142L55.5503 53.3447L53.9736 51.1749L56.5247 52.0034L58.1014 49.8339V52.516L60.6524 53.3447L58.1014 54.1734V56.8552L56.5247 54.6855ZM53.181 60.1124L51.1193 59.4425L53.7861 55.7723L54.185 55.6427L56.4531 54.9061L57.5011 56.3482L58.1014 57.1742V59.978L55.4344 60.8444L53.181 60.1124ZM49.355 57.2118L50.6473 56.792L53.4828 55.871L50.9317 59.3816L49.355 58.8693V57.2118ZM46.8039 48.6484L49.355 47.8196V45.1378L49.4862 45.3184L50.9315 47.3075H50.9317L53.4828 46.4788L51.906 48.6484L53.4828 50.8181L50.9317 49.9894L49.355 52.1591V49.4771L46.8039 48.6484ZM43.8336 44.8795L45.403 42.7196L46.5004 41.2095L49.1674 44.8795V47.6834L46.5004 48.55L43.8336 47.6834V44.8795ZM49.1674 29.364L46.6164 25.8532L47.5907 24.5122L49.1674 25.0245V29.364ZM50.9315 32.1107L53.4828 31.282L51.906 33.4517L53.4828 35.6213L50.9315 34.7925L49.355 36.9623V34.2805L46.8039 33.4517L49.355 32.6228V29.941L50.9315 32.1107ZM53.6703 26.4873L55.3186 28.7556L53.6703 31.0237L51.0033 31.8903L49.355 29.622V25.0854L53.6703 26.4873ZM51.972 24.1503L53.4828 26.2293L49.355 24.8882V23.2308L50.9315 22.7185L51.972 24.1503ZM52.9564 20.4508L55.1311 21.1573L52.9564 21.8636L51.0033 22.4981L50.029 21.1573L51.0033 19.8163L52.9564 20.4508ZM58.1014 20.1921L55.4344 21.0585L53.2347 20.3441L51.1193 19.6568L53.7861 15.9866L56.4531 15.1202L58.1014 17.3885V20.1921ZM59.2061 23.4058L58.2889 24.6677V21.9858L55.7379 21.1573L58.2889 20.3284V17.6465L60.84 21.1573L59.2061 23.4058ZM63.623 27.7907L60.9559 28.6568L58.2889 27.7907V24.9868L60.9559 21.3168L63.623 24.9868V27.7907ZM65.3872 27.4146L67.9381 26.5859L66.3616 28.7556L67.9381 30.9254L65.3872 30.0966L63.8105 32.2662V29.5844L61.2594 28.7556L63.8105 27.9269V25.2448L65.3872 27.4146ZM68.7309 21.9877L70.7926 22.6576L68.1258 26.3278L65.4588 27.1942L64.0167 25.2097L63.8105 24.9259V22.1221L66.4775 21.2557L68.7309 21.9877ZM72.5571 24.8882L71.2914 25.2995L68.4291 26.2293L70.9802 22.7185L72.5571 23.2308V24.8882ZM75.108 33.4517L72.5571 34.2805L72.5569 36.9621L70.9802 34.7925L68.4291 35.6213L70.0058 33.4517L68.4291 31.282L70.9802 32.1107L72.5571 29.941V32.6228L75.108 33.4517ZM78.0785 29.364L75.5274 25.8532L76.5017 24.5122L78.0785 25.0245V29.364ZM79.8113 32.0676V32.0678L79.8425 32.1107L80.3003 31.9619C80.3131 31.9577 80.3252 31.954 80.3386 31.9494L82.3938 31.282L80.8171 33.4517L82.3936 35.6213L79.8425 34.7925L78.266 36.9623V34.2805L75.715 33.4517L78.266 32.6228V29.941L79.8113 32.0676ZM82.5811 26.4873L84.2294 28.7556L83.0824 30.3344L82.5811 31.0237C82.3178 31.1095 80.3026 31.7641 79.9143 31.8903L78.4722 29.9058L78.266 29.622V25.0854L82.5811 26.4873ZM80.4705 23.5826L82.3936 26.2293L81.7119 26.0076L78.266 24.8882V23.2308L79.8425 22.7185L80.4705 23.5826ZM81.8287 20.438L84.0419 21.1573L81.8287 21.8762L79.9143 22.4981L78.9398 21.1573L79.9143 19.8163L81.8287 20.438ZM87.2 24.6677V21.9858L84.6489 21.1573L87.2 20.3284V17.6465L88.7279 19.7493M87.2 27.7907V24.9868V27.7907ZM87.2 52.3795V49.5757V52.3795ZM88.1169 47.9946L87.2 49.2567V44.9174L88.7765 44.4051M87.2 44.7203V42.9873L85.5516 42.452L86.5704 41.05L85.5516 39.6481L87.2 39.1128V37.38M85.7626 45.187L82.8844 46.122L85.4357 42.6114L87.0122 43.1237V44.7812L85.7626 45.187ZM78.266 42.015L80.9328 41.1486L83.1865 41.8807L85.2481 42.5505L82.5811 46.2208L79.9143 47.087L78.266 44.8186V42.015ZM85.2481 39.5498L83.1865 40.2194L80.9328 40.9515L78.266 40.0851V37.2814L79.9141 35.0131L82.5811 35.8795L85.2481 39.5498ZM86.3384 41.05L85.3641 42.3911L83.4498 41.7691L81.2363 41.05L83.4498 40.331L85.3641 39.709L86.3384 41.05ZM84.3954 38.057L82.8846 35.9779L87.0122 37.3191V38.9763L85.4357 39.4887L84.3954 38.057ZM85.3641 30.317L87.0122 32.5851V37.1218L82.6971 35.7201L81.0488 33.4517L82.6971 31.1834L85.3641 30.317ZM88.7765 37.695L87.2 37.1827V32.8434M87.2 32.5242V29.7206V32.5242ZM82.6971 26.3278L80.0303 22.6576L82.0918 21.9877L84.3454 21.2557L87.0124 22.1221V24.9257L85.3641 27.1942L82.6971 26.3278ZM87.0122 29.5844V32.2662L85.4357 30.0966L82.8844 30.9254L84.4614 28.7556L82.8846 26.5859L85.4357 27.4146L87.0122 25.2451V27.9269M75.5274 41.05L77.1613 38.8016L78.0785 37.5395V40.2213L80.6295 41.05L78.0785 41.879V44.5606L75.5274 41.05ZM72.7444 44.8795L75.4113 41.2095L78.0785 44.8795V47.6834L75.4115 48.55L72.7444 47.6834V44.8795ZM72.7444 37.2205V34.4165L75.4113 33.5503L78.0785 34.4165V37.2203L75.4113 40.8906L72.7444 37.2205ZM65.5746 42.5505L67.6903 41.8631L69.8899 41.1486L72.5569 42.015V44.8186L70.9086 47.087C70.5199 46.961 68.5047 46.3062 68.2416 46.2208L65.5746 42.5505ZM65.4588 51.7833L63.8105 49.515V44.9783L68.1258 46.38L69.7741 48.6484L68.1258 50.9167L65.4588 51.7833ZM58.2889 49.5757L60.9559 45.9056L63.623 49.5759V52.3795L62.181 52.8481L60.9559 53.2459L58.2889 52.3795V49.5757ZM58.2889 44.9174L59.8657 44.4051L60.84 45.7462L59.2061 47.9946L58.2889 49.2567V44.9174ZM63.623 44.9174V49.2567L61.0719 45.7462L61.3666 45.3406L62.0462 44.4051L63.623 44.9174ZM65.0601 36.9129L67.9381 35.9779L65.3872 39.4887L63.8105 38.9763V37.3191L65.0601 36.9129ZM67.6903 40.237L65.5746 39.5498L68.2416 35.8795L70.9086 35.0131L72.5569 37.2814V40.0851L69.8899 40.9515L67.6903 40.237ZM66.4273 44.0429L67.9381 46.122L63.8105 44.7812V43.1237L65.3872 42.6114L66.4273 44.0429ZM64.4843 41.05L65.4588 39.709L67.4119 40.3437L69.5864 41.05L67.4119 41.7566L65.4588 42.3911L64.4843 41.05ZM66.5933 28.7556L68.2416 26.4873L72.5571 25.0854V29.6218L70.9086 31.8903L68.2416 31.0237L66.5933 28.7556ZM69.7741 33.4517L68.1258 35.7201L63.8105 37.1218V32.5851L65.4588 30.317L68.1258 31.1834L69.7741 33.4517ZM56.6406 42.452L57.6593 41.05L56.6406 39.6481L58.2889 39.1128V37.38L59.9372 37.9153L60.9559 36.5136L61.9747 37.9153L63.3571 37.4664L63.623 37.38V39.1128L65.2713 39.6481L64.2526 41.05L65.2713 42.452L63.623 42.9873V44.7203L63.3571 44.6339L61.9747 44.1848L60.9559 45.5865L59.9372 44.1848L58.2889 44.7203V42.9873L56.6406 42.452ZM56.8518 45.187L53.9736 46.122L56.5247 42.6114L58.1014 43.1237V44.7812L56.8518 45.187ZM49.355 42.015L52.022 41.1486L54.2754 41.8807L56.3371 42.5505L53.6703 46.2208L53.1786 46.3803L51.0033 47.087L49.355 44.8186V42.015ZM56.3371 39.5498L54.2754 40.2194L52.022 40.9515L49.355 40.0851V37.2814L51.0033 35.0131L53.6703 35.8795L56.3371 39.5498ZM57.4274 41.05L56.4531 42.3911L54.5387 41.7691L52.3255 41.05L54.5387 40.331L56.4531 39.709L57.4274 41.05ZM55.4844 38.057L53.9736 35.9779L58.1014 37.3191V38.9763L56.5247 39.4887L55.4844 38.057ZM56.4531 30.317L58.1014 32.5851V37.1218L53.7861 35.7201L52.138 33.4517L53.7861 31.1834L56.4531 30.317ZM60.84 36.3539L59.8657 37.695L58.2889 37.1827V32.8434L60.84 36.3539ZM63.623 32.8434V37.1827L62.0462 37.6948L61.3666 36.7597L61.0719 36.3539L62.7058 34.1055L63.623 32.8434ZM60.9559 36.1945L58.2889 32.5242V29.7206L60.9559 28.8542L63.623 29.7206V32.5242L60.9559 36.1945ZM53.7861 26.3278L51.1193 22.6576L53.2347 21.9703L55.4344 21.2557L58.1014 22.1221V24.9259L56.4531 27.1942L53.7861 26.3278ZM56.5247 27.4146L58.1014 25.2448V27.9269L60.6524 28.7556L58.1014 29.5844V32.2662L56.5247 30.0966L53.9736 30.9254L55.5503 28.7556L53.9736 26.5859L56.5247 27.4146ZM46.5004 40.8906L43.8336 37.2205V34.4165L45.5246 33.8671L46.5004 33.5503L49.1674 34.4165V37.2203L46.5004 40.8906ZM49.1674 37.5395V40.2213L51.7185 41.05L49.1674 41.879V44.5606L46.6164 41.0503L49.1674 37.5395ZM55.3186 53.3447L53.6703 55.613L49.355 57.0147V52.4781L51.0033 50.2098L53.6703 51.0764L55.3186 53.3447ZM52.138 48.6484L53.7861 46.38L58.1014 44.9783V49.515L56.4531 51.7833L53.7861 50.9167L52.138 48.6484ZM68.1258 55.7723L70.7926 59.4425L68.7309 60.1124L66.4775 60.8444L63.8105 59.978V57.1742L65.4588 54.9061L67.7269 55.6427L68.1258 55.7723ZM65.3872 54.6855L63.8105 56.8552V54.1734L61.2594 53.3447L61.6492 53.2179L63.8105 52.516V49.8339L63.9415 50.0147L65.3872 52.0034L67.9383 51.1749L66.3616 53.3447L67.9381 55.5142L65.3872 54.6855ZM70.1934 41.05L72.7444 40.2213V37.5395L74.2724 39.6423L75.2955 41.05L73.6616 43.2987L72.7444 44.5606V41.879L70.1934 41.05ZM84.2294 53.3447L82.5811 55.613L80.6777 56.2314L78.266 57.0147V52.4781L79.9143 50.2098L82.5811 51.0764L84.2294 53.3447ZM81.0488 48.6484L82.6971 46.38L87.0122 44.9783V49.515L85.3641 51.7833L82.6971 50.9167L81.0488 48.6484ZM87.0124 17.3885V20.1921L84.3454 21.0585L82.0918 20.3265L80.0303 19.6568L82.6971 15.9866L85.3641 15.1202L87.0122 17.3883L87.0124 17.3885ZM72.7444 29.364V25.0245L74.321 24.5122L75.2955 25.8532L73.7288 28.0091L72.7444 29.364ZM75.4113 26.0129L78.0785 29.6829V32.4868L75.4115 33.353L72.7444 32.4868V29.6829L75.4113 26.0129ZM69.9399 18.1641L68.4291 16.0851L72.5571 17.426V19.0836L70.9802 19.5959L69.9399 18.1641ZM71.8831 21.1573L70.9086 22.4981L68.994 21.8762L66.781 21.1573L68.994 20.438L70.9086 19.8163L71.8831 21.1573ZM43.8334 29.364V25.0245L45.4101 24.5122L46.3845 25.8532L44.7506 28.1019L43.8334 29.364ZM46.5004 26.0129L49.1674 29.6829V32.4868L46.5004 33.353L43.8334 32.4868V29.6829L46.5004 26.0129ZM42.0694 22.7185L43.6459 23.2308V24.8882L42.3536 25.308L39.5181 26.2293L42.0694 22.7185ZM41.0291 18.1641L39.5183 16.0851L43.6459 17.426V19.0836L42.0694 19.5959L41.0291 18.1641ZM42.9721 21.1573L41.9978 22.4981L40.0832 21.8762L37.87 21.1573L40.0832 20.438L41.9978 19.8163L42.9721 21.1573ZM46.1969 33.4517L43.6459 34.2805V36.9623L42.0694 34.7925L39.5181 35.6213L41.0948 33.4517L39.5183 31.282L42.0694 32.1107L43.6459 29.941V32.6228L46.1969 33.4517ZM41.2824 41.05L43.8334 40.2213V37.5393L46.3845 41.05L43.8334 44.5606V41.879L41.2824 41.05ZM46.3845 56.2469L45.4101 57.5879L43.8336 57.0756V52.7361L46.3845 56.2469ZM49.1674 52.7361V57.0756L47.5909 57.5879L46.6164 56.2469L48.2241 54.0347L49.1674 52.7361ZM46.5004 56.0874L43.8336 52.4172V49.6135L46.5004 48.7471L49.1674 49.6135V52.4172L46.5004 56.0874ZM51.6806 63.5351L53.4826 66.0152L49.355 64.6739V63.0165L50.9317 62.5044L51.6806 63.5351ZM50.029 60.943L51.0033 59.602L52.9179 60.2239L55.1311 60.943L52.9179 61.6621L51.0033 62.2838L50.029 60.943ZM78.0785 52.7363V57.0756L76.5017 57.5879L75.5274 56.2469L77.1351 54.0347L78.0785 52.7363ZM75.4115 56.0874L72.7444 52.4172V49.6135L75.4115 48.7471L78.0785 49.6135V52.4172L75.4115 56.0874ZM80.6124 63.5635L82.3938 66.0152L78.266 64.6739V63.0165L79.8425 62.5044L80.6124 63.5635ZM78.94 60.943L79.9143 59.602L81.8287 60.2239L84.0419 60.943L81.8287 61.6621L79.9143 62.2838L78.94 60.943ZM74.2372 8.57974L75.108 8.86268L72.5571 9.6914V12.3732L70.9802 10.2037L68.4291 11.0324L70.0058 8.86268L68.4291 6.69292L69.7065 7.10792L70.9802 7.52165L72.5569 5.35211V8.03396L74.2372 8.57974ZM46.1971 8.86268L43.6459 9.6914V12.3732L42.0694 10.2037L39.5181 11.0324L41.0948 8.86268L39.5181 6.69292L40.6865 7.07256L42.0694 7.52165L43.6459 5.35211V8.03396L46.1971 8.86268ZM40.8631 73.2374L39.2148 75.5057L34.8997 76.9074V72.371L36.5478 70.1027L39.2148 70.9691L40.8631 73.2374ZM37.6825 68.5413L39.3305 66.2732L43.6461 64.8713V69.4077L41.9978 71.676L39.3305 70.8096L37.6825 68.5413ZM47.0675 73.323L46.8039 73.2374L49.355 72.4087V69.7268L49.5974 70.0602L50.9315 71.8964H50.9317L52.5685 71.3648L53.4828 71.0677L51.906 73.2374L53.4828 75.4072L50.9315 74.5784L49.355 76.7482V74.0661L47.0675 73.323ZM75.715 73.2374L78.266 72.4087V69.7268L79.8425 71.8964L82.3936 71.0679L80.8171 73.2374L82.3936 75.4072L79.8425 74.5784L78.266 76.7482V74.0661L75.715 73.2374ZM34.7121 76.9686L33.1354 77.4809L32.1609 76.1396L33.2847 74.5935L34.7121 72.6291V76.9686ZM34.7121 37.1827L33.1354 37.695L32.1609 36.3539L33.795 34.1055L34.7121 32.8434V37.1827ZM87.2 4.9344V3.20161L85.5516 2.66629L85.8355 2.27557L86.5704 1.26436H86.3384L85.3641 2.60518L83.4498 1.98322L81.2363 1.26436H80.6295L78.0785 2.09309V4.77493L75.5274 1.26436H75.2955L74.5663 2.26783L72.7444 4.77493V2.09309L70.1936 1.26436H69.5864L67.3271 1.99829L65.4588 2.60518L64.4843 1.26436H64.2526L65.2713 2.66629L63.623 3.20161V4.9344L61.9747 4.39887L60.9559 5.80079L59.9372 4.39887L58.2889 4.9344V3.20161L56.6406 2.66629L57.6593 1.26436H57.4274L56.4531 2.60518L54.5846 1.99829L52.3255 1.26436H51.7185L49.1674 2.09309V4.77493L48.5912 3.98199L46.6164 1.26436H46.3845L45.2636 2.80672L43.8334 4.77493V2.09309L41.2826 1.26436H40.6754L36.5478 2.60518L35.5735 1.26436H35.3415L36.3602 2.66629L34.7121 3.20161V4.9344L33.0636 4.39887L32.0449 5.80079V6.11994L34.7121 9.78997V12.5938L32.0451 13.4602L32.0449 13.6574L34.7121 14.5237V17.3276L32.0449 20.9976V21.3168L34.7121 24.9868V27.7907L32.0449 28.6568V28.8542L34.7121 29.7206V32.5242L32.0449 36.1945V36.5136L33.0636 37.9153L34.7121 37.38V39.1128L36.0714 39.5544L36.3602 39.6481L35.3415 41.05L36.3602 42.452L34.7121 42.9873V44.7203L33.0636 44.1848L32.0449 45.5865V45.9058L34.7121 49.5759V52.3795L32.0449 53.2459V53.443L34.7121 54.3094V57.1133L34.4319 57.4988L32.0451 60.7835L32.0449 61.1025L34.2988 64.2037L34.7121 64.7725V67.5766L32.0449 68.4427V68.6401L32.3208 68.7294L34.7121 69.5063V72.3101L34.2705 72.9176L32.0449 75.9804V76.2993L33.0636 77.701L34.7121 77.1657V78.8985L36.3602 79.434L35.3415 80.8359H35.5735L36.5478 79.4949L38.5255 80.1374L40.6756 80.8359H40.6754H41.2826L43.8334 80.0072V77.3254L46.3845 80.8359H46.6164L49.1674 77.3254V80.0072L51.7185 80.8359H52.3255L54.4753 80.1374L56.4531 79.4949L57.4274 80.8359H57.6593L56.6408 79.434L58.2889 78.8985V77.1657L59.9372 77.701L60.9559 76.2993L61.9747 77.701L63.623 77.1657V78.8985L65.2713 79.434L64.2526 80.8359H64.4843L65.4588 79.4949L68.6769 80.5404L69.5864 80.8359H70.1936L72.7444 80.0072V77.3254L72.9471 77.6041L75.2955 80.8359H75.5274L78.0785 77.3254V80.0072L80.6295 80.8359H80.6293H81.2363L83.3863 80.1374L85.3641 79.4949L86.3384 80.8359H86.5704L85.5516 79.434L87.2 78.8985V77.1657" fill="white"/>
</g>
</g>
</g>
</g>
</g>
<g id="g32">
<g id="Clip path group_2">
<mask id="mask1_1285_9681" style="mask-type:luminance" maskUnits="userSpaceOnUse" x="0" y="0" width="146" height="117">
<g id="clipPath38">
<path id="path36" d="M0 7.62939e-06H146V117H0V7.62939e-06Z" fill="white"/>
</g>
</mask>
<g mask="url(#mask1_1285_9681)">
<g id="g34">
<g id="g40">
<path id="path42" d="M12.0038 95.0983C13.6988 95.0983 15.142 95.2621 16.3338 95.5905L16.0715 97.673C14.7702 97.5637 13.4145 97.5091 12.0038 97.5091C10.7465 97.5091 9.88537 97.8942 9.4207 98.6653C8.95562 99.4359 8.7235 100.86 8.7235 102.937C8.7235 105.003 8.95562 106.422 9.4207 107.193C9.88537 107.963 10.7465 108.349 12.0038 108.349C13.8082 108.349 15.2732 108.278 16.3995 108.135L16.6456 110.185C15.4425 110.568 13.8955 110.759 12.0038 110.759C9.72923 110.759 8.13303 110.175 7.21438 109.005C6.29614 107.835 5.83691 105.812 5.83691 102.937C5.83691 100.051 6.29614 98.0231 7.21438 96.853C8.13303 95.6834 9.72923 95.0983 12.0038 95.0983Z" fill="#B2B2B2"/>
</g>
<g id="g44">
<path id="path46" d="M26.1423 105.659H22.7308C21.9652 105.659 21.5828 106.058 21.5828 106.856V107.266C21.5828 107.725 21.6945 108.061 21.9189 108.275C22.1429 108.488 22.5012 108.594 22.9933 108.594C24.0649 108.594 25.1144 108.168 26.1423 107.315V105.659ZM24.7812 99.4438C26.1695 99.4438 27.1893 99.7223 27.8398 100.28C28.4904 100.837 28.8158 101.81 28.8158 103.199V110.497H26.7165L26.4377 108.857C25.3003 110.114 23.9335 110.743 22.3373 110.743C21.3203 110.743 20.4973 110.469 19.8687 109.923C19.2397 109.376 18.9258 108.611 18.9258 107.627V106.528C18.9258 105.675 19.2046 105.014 19.7622 104.544C20.3198 104.074 21.1015 103.839 22.1077 103.839H26.1423V103.166C26.1423 102.565 26.0082 102.16 25.7405 101.953C25.4726 101.745 24.9505 101.641 24.1744 101.641C23.004 101.641 21.5059 101.712 19.6799 101.854L19.4177 99.9686C21.3312 99.6187 23.1189 99.4438 24.7812 99.4438Z" fill="#B2B2B2"/>
</g>
<g id="g48">
<path id="path50" d="M36.9079 101.658C36.4267 101.658 35.9593 101.762 35.5057 101.969C35.0517 102.177 34.4749 102.522 33.7751 103.002V108.135C33.9066 108.168 34.1031 108.215 34.3656 108.275C34.6281 108.335 34.8275 108.379 34.9642 108.406C35.1009 108.433 35.2732 108.463 35.481 108.496C35.6886 108.529 35.8854 108.553 36.0715 108.57C36.2573 108.586 36.4486 108.594 36.6456 108.594C37.2032 108.594 37.6298 108.51 37.9247 108.34C38.22 108.171 38.4415 107.84 38.5892 107.348C38.7368 106.856 38.8107 106.135 38.8107 105.184C38.8107 103.85 38.6682 102.929 38.3841 102.42C38.0995 101.912 37.6076 101.658 36.9079 101.658ZM37.892 99.4603C40.3303 99.4603 41.5497 101.379 41.5497 105.216C41.5497 107.25 41.2161 108.682 40.549 109.513C39.8819 110.344 38.8433 110.759 37.4328 110.759C35.9894 110.759 34.7482 110.409 33.7096 109.71C33.7534 110.202 33.7751 110.945 33.7751 111.94V114.777H31.1182V99.7552H33.3159L33.48 101.346C33.983 100.789 34.6471 100.335 35.4726 99.985C36.2984 99.6351 37.1048 99.4603 37.892 99.4603Z" fill="#B2B2B2"/>
</g>
<path id="path52" d="M46.5518 110.513H43.8944V99.7718H46.5518V110.513ZM44.6 95.0981H45.8299C46.3437 95.0981 46.601 95.3551 46.601 95.8688V97.0661C46.601 97.5801 46.3437 97.8366 45.8299 97.8366H44.6C44.0859 97.8366 43.8291 97.5801 43.8291 97.0661V95.8688C43.8291 95.3551 44.0859 95.0981 44.6 95.0981Z" fill="#B2B2B2"/>
<g id="g54">
<path id="path56" d="M53.4723 99.7554H56.6214V101.691H53.4723V107.135C53.4723 107.606 53.5678 107.933 53.7593 108.119C53.9506 108.305 54.2868 108.398 54.768 108.398H56.2279L56.5232 110.366C55.7465 110.617 54.8226 110.743 53.7511 110.743C52.8107 110.743 52.0888 110.47 51.586 109.923C51.0831 109.377 50.8315 108.606 50.8315 107.611V101.691H48.8799V99.8703L50.8154 99.7554V96.6561H53.4723V99.7554Z" fill="#B2B2B2"/>
</g>
<g id="g58">
<path id="path60" d="M65.655 105.659H62.2437C61.4779 105.659 61.0954 106.058 61.0954 106.856V107.266C61.0954 107.725 61.2074 108.061 61.4316 108.275C61.6556 108.488 62.0139 108.594 62.506 108.594C63.5776 108.594 64.6271 108.168 65.655 107.315V105.659ZM64.2939 99.4438C65.6825 99.4438 66.7022 99.7223 67.3525 100.28C68.0033 100.837 68.3285 101.81 68.3285 103.199V110.497H66.2292L65.9504 108.857C64.8132 110.114 63.4462 110.743 61.85 110.743C60.8332 110.743 60.01 110.469 59.3814 109.923C58.7524 109.376 58.4385 108.611 58.4385 107.627V106.528C58.4385 105.675 58.7173 105.014 59.2749 104.544C59.8325 104.074 60.6142 103.839 61.6204 103.839H65.655V103.166C65.655 102.565 65.5209 102.16 65.2532 101.953C64.9852 101.745 64.4632 101.641 63.6871 101.641C62.5167 101.641 61.0186 101.712 59.1926 101.854L58.9304 99.9686C60.8439 99.6187 62.6316 99.4438 64.2939 99.4438Z" fill="#B2B2B2"/>
</g>
<g id="g62">
<path id="path64" d="M73.2817 95.147V107.135C73.2817 107.977 73.7078 108.398 74.5608 108.398H75.4794L75.7911 110.365C75.5617 110.475 75.2113 110.565 74.7414 110.636C74.2711 110.707 73.8613 110.743 73.5113 110.743C72.6035 110.743 71.8927 110.486 71.3789 109.972C70.8648 109.458 70.6084 108.737 70.6084 107.807V95.147H73.2817Z" fill="#B2B2B2"/>
</g>
<g id="g66">
<path id="path68" d="M92.4709 110.844H89.6128V103.623H83.3657V110.844H80.5078V95.0503H83.3657V101.262H89.6128V95.0503H92.4709V110.844Z" fill="#B2B2B2"/>
</g>
<g id="g70">
<path id="path72" d="M100.008 101.576C99.0245 101.576 98.3545 101.821 97.9991 102.313C97.6441 102.805 97.4664 103.74 97.4664 105.118C97.4664 106.495 97.6441 107.43 97.9991 107.922C98.3545 108.414 99.0245 108.66 100.008 108.66C100.981 108.66 101.646 108.414 102.001 107.922C102.357 107.43 102.534 106.495 102.534 105.118C102.534 103.74 102.357 102.805 102.001 102.313C101.646 101.821 100.981 101.576 100.008 101.576ZM95.9002 100.739C96.7033 99.8756 98.0728 99.4436 100.008 99.4436C101.944 99.4436 103.311 99.8726 104.109 100.731C104.907 101.589 105.306 103.052 105.306 105.118C105.306 107.184 104.907 108.644 104.109 109.497C103.311 110.349 101.944 110.775 100.008 110.775C98.0728 110.775 96.7033 110.349 95.9002 109.497C95.0964 108.644 94.6943 107.184 94.6943 105.118C94.6943 103.062 95.0964 101.603 95.9002 100.739Z" fill="#B2B2B2"/>
</g>
<g id="g74">
<path id="path76" d="M117.362 110.497H115.262L115.066 109.053C113.546 110.201 112.047 110.775 110.571 110.775C108.581 110.775 107.586 109.786 107.586 107.807V99.755H110.26V107.004C110.26 107.583 110.352 107.982 110.539 108.2C110.724 108.419 111.069 108.529 111.572 108.529C112.304 108.529 113.348 108.13 114.705 107.332V99.755H117.362V110.497Z" fill="#B2B2B2"/>
</g>
<g id="g78">
<path id="path80" d="M124.036 99.4438C125.589 99.4438 127.174 99.575 128.793 99.8372L128.596 101.69C126.781 101.625 125.414 101.592 124.495 101.592C123.533 101.592 122.913 101.641 122.634 101.74C122.355 101.838 122.215 102.095 122.215 102.51C122.215 102.609 122.221 102.693 122.232 102.765C122.243 102.836 122.262 102.904 122.29 102.969C122.316 103.035 122.341 103.09 122.363 103.133C122.385 103.177 122.431 103.218 122.503 103.257C122.574 103.295 122.623 103.325 122.65 103.346C122.677 103.369 122.746 103.398 122.855 103.437C122.965 103.475 123.041 103.5 123.085 103.511C123.128 103.521 123.221 103.546 123.364 103.584C123.506 103.623 123.61 103.653 123.675 103.675L126.578 104.462C127.497 104.713 128.153 105.063 128.547 105.511C128.94 105.96 129.137 106.643 129.137 107.561C129.137 108.818 128.779 109.663 128.063 110.095C127.347 110.527 126.108 110.743 124.348 110.743C122.784 110.743 121.286 110.622 119.854 110.382L120.017 108.529C120.728 108.583 121.948 108.611 123.675 108.611C124.834 108.611 125.608 108.545 125.996 108.414C126.384 108.283 126.578 108.004 126.578 107.577C126.578 107.479 126.568 107.389 126.545 107.307C126.523 107.225 126.502 107.157 126.48 107.102C126.458 107.047 126.412 106.993 126.341 106.938C126.269 106.883 126.215 106.84 126.176 106.807C126.138 106.774 126.059 106.736 125.939 106.692C125.819 106.648 125.731 106.618 125.676 106.602C125.621 106.585 125.512 106.555 125.348 106.512C125.184 106.468 125.069 106.435 125.004 106.413L122.167 105.659C121.237 105.396 120.584 105.022 120.206 104.536C119.829 104.049 119.641 103.369 119.641 102.494C119.641 101.335 119.971 100.534 120.633 100.092C121.294 99.6487 122.428 99.4329 124.036 99.4438Z" fill="#B2B2B2"/>
</g>
<g id="g82">
<path id="path84" d="M136.65 101.56C135.709 101.56 135.061 101.751 134.706 102.134C134.35 102.516 134.156 103.265 134.124 104.38H137.814C138.459 104.38 138.782 103.965 138.782 103.134C138.782 102.554 138.628 102.147 138.323 101.912C138.016 101.677 137.459 101.56 136.65 101.56ZM136.535 99.4443C138.241 99.4443 139.484 99.7529 140.266 100.371C141.048 100.988 141.439 101.92 141.439 103.167C141.439 105.222 140.477 106.25 138.552 106.25H134.172C134.271 107.19 134.533 107.816 134.96 108.127C135.387 108.439 136.081 108.595 137.043 108.595C138.093 108.595 139.378 108.507 140.898 108.332L141.144 110.038C140.138 110.519 138.661 110.759 136.715 110.759C134.769 110.759 133.388 110.328 132.573 109.464C131.759 108.6 131.352 107.146 131.352 105.102C131.352 103.013 131.751 101.549 132.549 100.707C133.347 99.8649 134.675 99.4443 136.535 99.4443Z" fill="#B2B2B2"/>
</g>
</g>
</g>
</g>
</g>
</g>
</svg>
