<svg width="15" height="17" viewBox="0 0 15 17" fill="none" xmlns="http://www.w3.org/2000/svg">
<g id="simple-line-icons:reload" clip-path="url(#clip0_421_9249)">
<path id="Vector" d="M7.48438 0.5C6.50521 0.5 5.56771 0.692708 4.67188 1.07812C3.77604 1.46354 3.00521 1.97917 2.35938 2.625C1.71354 3.27083 1.19792 4.04167 0.8125 4.9375C0.427083 5.83333 0.234375 6.77083 0.234375 7.75C0.234375 8.97917 0.526042 10.1276 1.10938 11.1953C1.69271 12.263 2.48958 13.1328 3.5 13.8047C4.51042 14.4766 5.63021 14.8646 6.85938 14.9688L5.42188 15.7031C5.32812 15.7448 5.26302 15.8125 5.22656 15.9062C5.1901 16 5.19792 16.0938 5.25 16.1875L5.29688 16.3125C5.34896 16.4062 5.42448 16.4661 5.52344 16.4922C5.6224 16.5182 5.71875 16.5052 5.8125 16.4531L8.20312 15.2344V15.2188H8.21875L8.375 15.1406C8.40625 15.1198 8.43229 15.099 8.45312 15.0781C8.47396 15.0573 8.49219 15.0339 8.50781 15.0078C8.52344 14.9818 8.53646 14.9531 8.54688 14.9219C8.56771 14.8281 8.55208 14.7344 8.5 14.6406L8.40625 14.4844L6.92188 12.1719C6.86979 12.0885 6.79427 12.0312 6.69531 12C6.59635 11.9688 6.5 11.9792 6.40625 12.0312L6.29688 12.1094C6.21354 12.1615 6.16406 12.2396 6.14844 12.3438C6.13281 12.4479 6.15625 12.5417 6.21875 12.625L7.07812 13.9844C6.00521 13.9115 5.02083 13.5885 4.125 13.0156C3.22917 12.4427 2.52344 11.6901 2.00781 10.7578C1.49219 9.82552 1.23438 8.82292 1.23438 7.75C1.23438 6.90625 1.40104 6.09896 1.73438 5.32812C2.06771 4.55729 2.51302 3.89062 3.07031 3.32812C3.6276 2.76562 4.29167 2.32031 5.0625 1.99219C5.83333 1.66406 6.64062 1.5 7.48438 1.5C8.61979 1.5 9.66927 1.77865 10.6328 2.33594C11.5964 2.89323 12.3568 3.65365 12.9141 4.61719C13.4714 5.58073 13.75 6.625 13.75 7.75C13.75 8.73958 13.5312 9.67188 13.0938 10.5469C12.6562 11.4219 12.0417 12.1562 11.25 12.75C11.1771 12.8021 11.125 12.8698 11.0938 12.9531C11.0625 13.0365 11.0521 13.1224 11.0625 13.2109C11.0729 13.2995 11.1042 13.3802 11.1562 13.4531C11.2396 13.5573 11.349 13.6198 11.4844 13.6406C11.6198 13.6615 11.7448 13.6302 11.8594 13.5469C12.776 12.8594 13.487 12.0078 13.9922 10.9922C14.4974 9.97656 14.75 8.89583 14.75 7.75C14.75 5.92708 14.1458 4.33333 12.9375 2.96875C11.7812 1.65625 10.3438 0.864583 8.625 0.59375C8.23958 0.53125 7.85938 0.5 7.48438 0.5Z" fill="black"/>
</g>
<defs>
<clipPath id="clip0_421_9249">
<rect width="14.75" height="16" fill="white" transform="translate(0 0.5)"/>
</clipPath>
</defs>
</svg>
